<?xml version="1.0" encoding="utf-8"?>
<!-- Generator: Adobe Illustrator 20.0.0, SVG Export Plug-In . SVG Version: 6.00 Build 0)  -->
<svg version="1.1" id="Layer_1" xmlns="http://www.w3.org/2000/svg" xmlns:xlink="http://www.w3.org/1999/xlink" x="0px" y="0px"
	 viewBox="0 0 288 92" style="enable-background:new 0 0 288 92;" xml:space="preserve">
<style type="text/css">
	.st0{fill-rule:evenodd;clip-rule:evenodd;fill:#429ABD;}
	.st1{fill-rule:evenodd;clip-rule:evenodd;fill:#8C961C;}
	.st2{fill-rule:evenodd;clip-rule:evenodd;fill:#21658A;}
	.st3{fill-rule:evenodd;clip-rule:evenodd;fill:#596300;}
	.st4{fill:#596300;}
	.st5{fill-rule:evenodd;clip-rule:evenodd;fill:#FFFFFF;}
	.st6{fill-rule:evenodd;clip-rule:evenodd;}
	.st7{fill:#3E4500;}
</style>
<g>
	<path class="st0" d="M9.11,0.44h25.44c5.01,0,9.11,4.1,9.11,9.11v25.44c0,5.01-4.1,9.11-9.11,9.11H9.11C4.1,44.09,0,39.99,0,34.98
		V9.54C0,4.53,4.1,0.44,9.11,0.44z"/>
	<path class="st1" d="M57.45,0.44h25.44c5.01,0,9.11,4.1,9.11,9.11v25.44c0,5.01-4.1,9.11-9.11,9.11H57.45
		c-5.01,0-9.11-4.1-9.11-9.11V9.54C48.34,4.53,52.44,0.44,57.45,0.44z"/>
	<path class="st2" d="M9.11,47.91h25.44c5.01,0,9.11,4.1,9.11,9.11v25.44c0,5.01-4.1,9.11-9.11,9.11H9.11C4.1,91.56,0,87.47,0,82.46
		V57.02C0,52.01,4.1,47.91,9.11,47.91z"/>
	<path class="st3" d="M57.45,47.91h25.44c5.01,0,9.11,4.1,9.11,9.11v25.44c0,5.01-4.1,9.11-9.11,9.11H57.45
		c-5.01,0-9.11-4.1-9.11-9.11V57.02C48.34,52.01,52.44,47.91,57.45,47.91z"/>
	<g>
		<path class="st4" d="M288,3.59c0,0.25-0.01,0.49-0.03,0.72c-0.02,0.22-0.04,0.43-0.08,0.62l0,0c-0.03,0.2-0.08,0.38-0.14,0.54
			c-0.06,0.17-0.14,0.32-0.22,0.44l0,0c-0.09,0.13-0.19,0.24-0.29,0.33l0,0c-0.11,0.1-0.22,0.17-0.34,0.24
			c-0.12,0.06-0.24,0.11-0.37,0.14c-0.13,0.03-0.25,0.05-0.39,0.05h-22.73v17.09h21.48c0.13,0,0.25,0.01,0.38,0.04
			c0.12,0.02,0.24,0.06,0.37,0.12c0.13,0.06,0.24,0.13,0.35,0.21c0.11,0.09,0.2,0.19,0.3,0.31l0,0c0.09,0.12,0.16,0.26,0.23,0.42
			c0.06,0.15,0.11,0.32,0.14,0.52h0c0.03,0.18,0.06,0.4,0.08,0.63c0.02,0.24,0.03,0.5,0.03,0.78c0,0.26-0.01,0.5-0.03,0.72
			c-0.02,0.22-0.04,0.42-0.08,0.61c-0.04,0.19-0.08,0.36-0.14,0.52c-0.06,0.16-0.14,0.31-0.22,0.43l0,0
			c-0.09,0.13-0.19,0.24-0.29,0.34c-0.1,0.1-0.22,0.18-0.34,0.25l-0.01,0.01c-0.12,0.06-0.24,0.11-0.36,0.14v0
			c-0.13,0.04-0.26,0.06-0.39,0.06h-21.48v21.24c0,0.12-0.02,0.23-0.07,0.35c-0.04,0.11-0.1,0.22-0.18,0.31v0
			c-0.08,0.11-0.19,0.2-0.32,0.28h0c-0.13,0.08-0.28,0.14-0.46,0.2l0,0c-0.17,0.05-0.36,0.09-0.57,0.13
			c-0.21,0.04-0.45,0.07-0.71,0.11h0c-0.27,0.04-0.58,0.06-0.93,0.08c-0.34,0.02-0.72,0.03-1.12,0.03c-0.37,0-0.73-0.01-1.06-0.03
			c-0.35-0.02-0.67-0.05-0.95-0.08h0c-0.27-0.03-0.52-0.07-0.75-0.11c-0.23-0.04-0.42-0.08-0.59-0.13l0,0
			c-0.18-0.05-0.34-0.12-0.47-0.2h0c-0.13-0.08-0.24-0.17-0.31-0.28c-0.08-0.1-0.14-0.2-0.18-0.31c-0.04-0.12-0.07-0.23-0.07-0.35
			V3.43c0-0.55,0.09-1.01,0.27-1.41c0.18-0.4,0.46-0.71,0.82-0.95l0,0c0.35-0.21,0.7-0.37,1.07-0.48c0.37-0.11,0.75-0.16,1.14-0.16
			h28.18c0.13,0,0.26,0.02,0.39,0.05c0.13,0.03,0.25,0.08,0.37,0.14l0,0c0.12,0.06,0.24,0.14,0.35,0.24c0.11,0.1,0.2,0.21,0.29,0.35
			l0,0c0.08,0.13,0.16,0.28,0.22,0.46c0.06,0.17,0.11,0.35,0.14,0.55l0,0c0.03,0.2,0.06,0.41,0.08,0.64
			C287.99,3.1,288,3.34,288,3.59z"/>
		<path class="st4" d="M238.42,49.33c0,0.28-0.03,0.54-0.08,0.78c-0.06,0.24-0.14,0.47-0.26,0.68l0,0c-0.11,0.2-0.24,0.37-0.39,0.53
			c-0.14,0.16-0.31,0.31-0.49,0.44l0,0c-0.18,0.13-0.37,0.24-0.57,0.33c-0.2,0.09-0.42,0.16-0.64,0.22v0
			c-0.21,0.06-0.43,0.1-0.64,0.13c-0.22,0.03-0.44,0.04-0.66,0.04h-2.66c-0.42,0-0.82-0.02-1.2-0.06c-0.38-0.04-0.72-0.09-1.04-0.16
			l0,0c-0.32-0.08-0.64-0.19-0.95-0.33c-0.31-0.14-0.61-0.31-0.91-0.5l0,0c-0.29-0.2-0.58-0.43-0.87-0.7
			c-0.29-0.27-0.57-0.57-0.86-0.91c-0.28-0.33-0.58-0.71-0.9-1.13c-0.32-0.43-0.65-0.9-0.99-1.42l-19.75-29.22l0,0
			c-0.53-0.77-1.05-1.54-1.56-2.32c-0.53-0.8-1.05-1.61-1.56-2.43c-0.52-0.82-1.03-1.64-1.53-2.46c-0.38-0.62-0.75-1.24-1.1-1.84
			c0.02,0.73,0.05,1.48,0.06,2.23c0.02,0.97,0.05,1.96,0.06,2.96v0c0.01,0.99,0.02,1.98,0.02,2.97c0.01,1.06,0.01,2.07,0.01,2.95
			v31.01c0,0.11-0.02,0.23-0.06,0.35c-0.04,0.11-0.09,0.21-0.17,0.31l0,0c-0.08,0.11-0.19,0.2-0.31,0.28h0
			c-0.12,0.08-0.27,0.14-0.44,0.19v0c-0.15,0.05-0.34,0.09-0.55,0.13c-0.21,0.04-0.44,0.07-0.69,0.11
			c-0.26,0.04-0.56,0.06-0.89,0.08c-0.32,0.02-0.67,0.03-1.05,0.03c-0.39,0-0.74-0.01-1.07-0.03c-0.32-0.02-0.61-0.05-0.87-0.08h0
			c-0.25-0.03-0.48-0.07-0.68-0.11c-0.21-0.04-0.39-0.08-0.53-0.13v0c-0.16-0.05-0.31-0.12-0.43-0.2c-0.12-0.08-0.22-0.17-0.3-0.28
			c-0.08-0.1-0.14-0.2-0.18-0.31c-0.04-0.12-0.07-0.23-0.07-0.35V3.71c0-0.56,0.09-1.04,0.28-1.45c0.19-0.41,0.48-0.75,0.87-0.99
			c0.37-0.24,0.76-0.41,1.17-0.53c0.41-0.12,0.83-0.18,1.27-0.18h3.97c0.48,0,0.91,0.02,1.31,0.05c0.4,0.03,0.76,0.09,1.08,0.16l0,0
			c0.32,0.06,0.62,0.15,0.91,0.26c0.3,0.12,0.59,0.26,0.85,0.41c0.26,0.15,0.51,0.35,0.76,0.57c0.25,0.22,0.5,0.47,0.74,0.75l0,0
			c0.24,0.29,0.5,0.61,0.76,0.96c0.24,0.33,0.5,0.7,0.77,1.1v0l15.21,22.55l0,0c0.9,1.3,1.74,2.57,2.57,3.82l0.14,0.21
			c0.45,0.68,0.88,1.33,1.29,1.96c0.42,0.64,0.83,1.28,1.23,1.92l0,0c0.35,0.54,0.7,1.09,1.21,1.89c0.41,0.65,0.81,1.28,1.19,1.87
			c0.4,0.61,0.79,1.23,1.19,1.85c0.27,0.43,0.54,0.86,0.81,1.29c-0.02-0.82-0.04-1.66-0.06-2.51c-0.02-1.08-0.03-2.19-0.04-3.33
			c-0.01-1.13-0.01-2.24-0.01-3.33c0-1.53,0-2.37,0-3.2V1.92c0-0.12,0.02-0.23,0.06-0.34l0,0c0.04-0.1,0.09-0.2,0.16-0.3l0.01-0.01
			c0.08-0.1,0.18-0.19,0.31-0.27c0.12-0.08,0.27-0.15,0.43-0.21l0,0c0.16-0.07,0.35-0.12,0.56-0.16c0.21-0.04,0.44-0.08,0.7-0.11
			c0.25-0.03,0.54-0.05,0.88-0.06c0.34-0.01,0.71-0.02,1.11-0.02c0.71,0,1.33,0.03,1.86,0.08c0.26,0.03,0.5,0.06,0.71,0.11
			c0.22,0.04,0.4,0.1,0.56,0.17c0.16,0.07,0.3,0.14,0.41,0.21c0.12,0.08,0.22,0.17,0.29,0.27l0,0c0.08,0.1,0.14,0.2,0.18,0.3
			c0.04,0.11,0.06,0.22,0.06,0.34V49.33z"/>
		<path class="st4" d="M177.94,44.63c0,0.2,0,0.4-0.01,0.59c-0.01,0.19-0.02,0.36-0.04,0.52v0c-0.02,0.16-0.04,0.31-0.07,0.45
			c-0.03,0.14-0.06,0.28-0.11,0.4h0c-0.04,0.12-0.09,0.25-0.15,0.36v0c-0.06,0.12-0.12,0.22-0.19,0.32
			c-0.07,0.1-0.17,0.21-0.29,0.33c-0.12,0.12-0.26,0.24-0.42,0.37c-0.17,0.14-0.43,0.31-0.78,0.51c-0.35,0.2-0.78,0.43-1.28,0.7h0
			c-0.54,0.28-1.15,0.56-1.81,0.83c-0.63,0.26-1.32,0.51-2.07,0.76c-0.77,0.25-1.6,0.49-2.49,0.7c-0.89,0.22-1.82,0.41-2.82,0.58v0
			c-1,0.18-2.04,0.31-3.12,0.4c-1.1,0.09-2.25,0.13-3.43,0.13c-2.05,0-4-0.14-5.85-0.41c-1.85-0.27-3.59-0.69-5.24-1.24
			c-1.65-0.55-3.18-1.23-4.59-2.05c-1.41-0.81-2.7-1.76-3.87-2.83l0,0c-1.16-1.08-2.19-2.29-3.09-3.62
			c-0.9-1.33-1.66-2.78-2.29-4.37l0,0c-0.63-1.58-1.1-3.28-1.41-5.11c-0.31-1.81-0.47-3.75-0.47-5.8c0-2.1,0.17-4.09,0.51-5.97
			c0.34-1.88,0.85-3.65,1.52-5.31h0c0.67-1.65,1.48-3.17,2.43-4.57c0.95-1.4,2.04-2.68,3.26-3.83c1.22-1.15,2.57-2.16,4.03-3.04
			c1.46-0.88,3.04-1.61,4.74-2.22c1.7-0.6,3.49-1.06,5.37-1.36c1.88-0.3,3.85-0.45,5.91-0.45c0.91,0,1.81,0.03,2.7,0.1
			c0.88,0.07,1.76,0.17,2.62,0.31v0c0.86,0.13,1.68,0.29,2.46,0.45c0.8,0.17,1.57,0.37,2.31,0.58l0,0c0.73,0.21,1.42,0.44,2.07,0.69
			c0.65,0.24,1.26,0.5,1.83,0.78c0.57,0.28,1.06,0.53,1.45,0.76c0.4,0.23,0.71,0.43,0.93,0.61c0.22,0.18,0.4,0.33,0.55,0.47
			c0.15,0.14,0.26,0.26,0.33,0.37c0.07,0.1,0.14,0.21,0.2,0.33c0.06,0.11,0.11,0.24,0.14,0.37h0c0.04,0.13,0.08,0.27,0.12,0.43
			c0.03,0.15,0.06,0.32,0.09,0.48v0c0.03,0.18,0.05,0.37,0.06,0.58c0.01,0.21,0.02,0.43,0.02,0.67c0,0.26-0.01,0.51-0.03,0.74
			s-0.04,0.44-0.08,0.63l0,0c-0.03,0.19-0.08,0.36-0.13,0.53c-0.05,0.16-0.12,0.31-0.19,0.45l0,0c-0.07,0.13-0.15,0.25-0.24,0.35v0
			c-0.09,0.11-0.19,0.2-0.3,0.27l-0.01,0.01c-0.11,0.06-0.22,0.11-0.35,0.15c-0.13,0.03-0.26,0.05-0.4,0.05
			c-0.5,0-1.17-0.26-2.01-0.79l0,0c-0.39-0.25-0.84-0.51-1.36-0.79c-0.52-0.28-1.1-0.57-1.74-0.87l0,0
			c-0.63-0.3-1.33-0.59-2.09-0.87c-0.77-0.28-1.61-0.54-2.52-0.79c-0.9-0.25-1.89-0.44-2.97-0.56c-1.08-0.13-2.26-0.19-3.54-0.19
			c-1.38,0-2.69,0.11-3.94,0.33c-1.25,0.22-2.43,0.55-3.55,1l0,0c-1.13,0.44-2.17,0.99-3.13,1.64c-0.96,0.65-1.83,1.4-2.62,2.26l0,0
			c-0.8,0.86-1.51,1.82-2.13,2.87c-0.62,1.05-1.14,2.2-1.58,3.44v0c-0.44,1.24-0.77,2.57-0.99,3.99c-0.22,1.42-0.33,2.94-0.33,4.54
			c0,1.59,0.11,3.09,0.32,4.5c0.21,1.4,0.53,2.71,0.96,3.92l0,0c0.41,1.21,0.92,2.32,1.52,3.33c0.61,1.02,1.31,1.95,2.1,2.77
			c0.79,0.81,1.67,1.53,2.64,2.15c0.97,0.62,2.02,1.13,3.17,1.55c1.15,0.42,2.38,0.74,3.68,0.95c1.3,0.21,2.68,0.32,4.15,0.32
			c1.23,0,2.38-0.06,3.46-0.19c1.08-0.12,2.08-0.31,3-0.55c0.92-0.24,1.77-0.51,2.55-0.78c0.79-0.28,1.51-0.57,2.16-0.87
			c0.65-0.31,1.24-0.59,1.78-0.87c0.53-0.27,1-0.53,1.43-0.78l0,0c0.43-0.25,0.82-0.44,1.16-0.57c0.35-0.13,0.66-0.2,0.93-0.2
			c0.26,0,0.47,0.05,0.67,0.14c0.11,0.05,0.2,0.13,0.29,0.22l0,0c0.08,0.09,0.15,0.2,0.21,0.34l0,0.01c0.05,0.12,0.1,0.27,0.14,0.45
			c0.04,0.15,0.07,0.33,0.09,0.52h0c0.03,0.2,0.04,0.43,0.05,0.68C177.94,44.07,177.94,44.34,177.94,44.63z"/>
		<path class="st4" d="M119.45,51.13c0,0.13-0.02,0.25-0.06,0.37c-0.04,0.12-0.1,0.22-0.18,0.32c-0.08,0.1-0.19,0.19-0.32,0.26
			c-0.13,0.07-0.28,0.13-0.46,0.18l0,0c-0.17,0.05-0.36,0.09-0.58,0.13c-0.22,0.04-0.47,0.07-0.74,0.11v0
			c-0.28,0.04-0.59,0.06-0.94,0.08c-0.33,0.02-0.7,0.03-1.09,0.03c-0.37,0-0.73-0.01-1.06-0.03c-0.35-0.02-0.67-0.05-0.95-0.08h0
			c-0.27-0.03-0.52-0.07-0.75-0.11c-0.23-0.04-0.42-0.08-0.59-0.13l0,0c-0.18-0.05-0.33-0.11-0.46-0.18l0,0
			c-0.14-0.07-0.24-0.16-0.32-0.26h0c-0.08-0.1-0.14-0.21-0.18-0.32c-0.04-0.12-0.06-0.24-0.06-0.37V1.92
			c0-0.13,0.02-0.25,0.07-0.37c0.04-0.12,0.11-0.22,0.2-0.32c0.09-0.1,0.21-0.19,0.35-0.26c0.13-0.07,0.29-0.13,0.47-0.18l0,0
			c0.18-0.05,0.38-0.09,0.6-0.13c0.21-0.04,0.46-0.07,0.73-0.11c0.28-0.04,0.59-0.06,0.92-0.08c0.32-0.02,0.67-0.03,1.03-0.03
			c0.39,0,0.75,0.01,1.09,0.03c0.35,0.02,0.66,0.05,0.94,0.08v0c0.27,0.03,0.52,0.07,0.74,0.11c0.22,0.04,0.41,0.08,0.58,0.13l0,0
			c0.18,0.05,0.33,0.11,0.46,0.18c0.14,0.08,0.24,0.16,0.32,0.26c0.08,0.1,0.14,0.21,0.18,0.32c0.04,0.12,0.06,0.24,0.06,0.37V51.13
			z"/>
	</g>
	<path class="st5" d="M39.88,71.98c0,0-1.61-0.46-1.78,0.59c-0.17,1.04-0.37,1.63-1.27,2.02c-0.9,0.39-1.35,0.53-2.38-0.39
		c-1.03-0.92-1.73-3.12-1.46-4.57c0.26-1.45,0.65-2.19-0.1-4.33c-0.75-2.14-2.16-1.72-2.23-4.39c-0.06-2.67,2.34-2.44,2.9-2.2
		c0.56,0.24,0.97,0.92,1.53,1.15c0.56,0.23,0.91-0.77,0.71-1.16c-0.19-0.39,0.03-1.99-3.12-2.96C29.53,54.76,29,51.46,29,51.46
		s-0.67-2.78,0.41-4.48c1.08-1.7,2.73-1.53,3.87-0.73c1.14,0.8,1.36,1.22,2.65,1.72c1.29,0.5,0.7-0.9,0.7-0.9s-0.78-2.66-2.76-4.1
		c-1.98-1.44-3.53-3.48-3.93-6.56c-0.4-3.08-0.34-4.55,1.11-6.41c1.45-1.86,3.13-1.12,3.93-0.56c0.81,0.56,1.03,0.98,2.24,2.49
		c1.2,1.51,2.15,0.89,2.42,0.58c0.27-0.3,0.78-0.99,0.13-3.43c-0.65-2.44-3.29-5.31-3.29-8.98c0-3.68,0.93-4.38,2.13-5.66
		c1.2-1.28,3.59-0.6,4.52,0.67s1.9,2.08,2.5,3.54c0.6,1.46,2.22,2.15,2.39,0.13c0.18-2.02,0.48-7.41,1.39-9.22
		c0.91-1.8,1.89-2.72,3.61-2.82c1.72-0.1,2.22,0.57,2.99,2.02c0.77,1.45,0.55,1.82,1,2.34c0.45,0.51,1.12,0.47,1.46-0.46
		c0.34-0.93,2.17-3.91,4.09-4.63c1.83-0.69,1.86-0.57,3.46-0.66c1.6-0.09,3.14,0.59,3.83,2.19c0.69,1.59,0.74,3.98-0.11,5.35
		c-0.84,1.37-1.06,2.19-0.44,3.44c0.18,0.37,0.31,0.45,0.83,0.5c0.52,0.05,2.18-1.16,4.44,1.36c2.27,2.52,0.87,4.23,0.35,5.21
		c-0.52,0.98-2.17,3.28-5.28,4.2c-0.32,0.1-1.54,0.69-2.74,1.18c-1.6,0.66-2.96,1.44-3.22,2.2c-0.31,0.89-0.58,1.38,0.54,2.44
		c1.12,1.06,2.43,0.05,3.78,0.25c1.35,0.2,3.44,1.48,2.72,4.04c-0.72,2.57-3.58,3.6-3.58,3.6s-3.9,2.14-5.86,2.35
		c-1.96,0.21-4.47,0.95-5.22,1.3c-0.74,0.34-3.18,1.46-2.82,2.33c0.36,0.87,0.78,1.16,1.74,1.07c0.96-0.1,4.52,0.18,4.07,2.33
		c-0.46,2.15-0.57,2.4-1.44,3.5c-0.87,1.1-2.6,2.6-4.2,2.99c-1.6,0.39-3.54,0.67-4.03,0.86c-0.49,0.19-1.98,1.55-0.35,1.97
		c1.63,0.43,2.53-0.49,3.27,0.97c0.74,1.45-0.94,3.08-1.72,3.63c-0.79,0.55-2.29,1.22-3.28,2.54c-0.99,1.32-1.79,2.48-1.69,3.74
		c0.1,1.26-0.7,1.91-1.42,2.16c-0.72,0.26-1.37-0.32-2.14-1.1c-0.31-0.31-0.7-0.12-0.84-0.05C40.62,72.22,39.88,71.98,39.88,71.98z"
		/>
	<path d="M39.85,72.11c0,0-1.46-0.41-1.6,0.47c-0.09,0.54-0.18,0.96-0.38,1.3c-0.2,0.35-0.49,0.62-0.97,0.83
		c-0.47,0.21-0.82,0.35-1.21,0.31c-0.38-0.03-0.78-0.24-1.32-0.72c-0.53-0.48-0.98-1.28-1.25-2.14c-0.28-0.87-0.39-1.81-0.25-2.56
		c0.04-0.24,0.09-0.46,0.13-0.66c0.22-1.05,0.39-1.84-0.22-3.6c-0.3-0.87-0.73-1.31-1.12-1.71c-0.57-0.59-1.08-1.12-1.12-2.72
		c-0.01-0.53,0.07-0.96,0.22-1.3h0c0.2-0.46,0.51-0.75,0.86-0.93h0c0.34-0.18,0.72-0.25,1.07-0.26c0.41-0.01,0.77,0.07,0.95,0.15v0
		c0.3,0.13,0.55,0.37,0.8,0.6c0.24,0.22,0.47,0.44,0.73,0.55c0.08,0.03,0.16,0.03,0.22,0c0.05-0.03,0.1-0.07,0.15-0.13
		c0.05-0.06,0.09-0.13,0.12-0.21h0c0.09-0.22,0.11-0.48,0.04-0.62c-0.04-0.08-0.06-0.18-0.09-0.31c-0.13-0.59-0.38-1.78-2.95-2.58
		c-3.14-0.97-3.75-4.18-3.78-4.38h0c0-0.01-0.69-2.84,0.43-4.59h0c0.03-0.05,0.07-0.1,0.1-0.15c0.55-0.78,1.22-1.14,1.9-1.21
		c0.68-0.07,1.36,0.14,1.93,0.5h0c0.05,0.03,0.09,0.06,0.14,0.09c0.36,0.25,0.63,0.47,0.86,0.65c0.51,0.41,0.89,0.71,1.76,1.05
		c0.98,0.38,0.51-0.72,0.51-0.72l0-0.01c0-0.01-0.77-2.61-2.7-4.02c-1-0.73-1.9-1.61-2.59-2.71c-0.7-1.09-1.19-2.39-1.39-3.95
		c-0.2-1.55-0.29-2.7-0.14-3.7c0.15-1.01,0.54-1.86,1.28-2.82c0.61-0.79,1.27-1.13,1.9-1.22c0.91-0.13,1.73,0.28,2.23,0.63
		c0.65,0.45,0.93,0.81,1.61,1.69c0.19,0.24,0.4,0.52,0.65,0.83c0.15,0.19,0.29,0.34,0.43,0.46v0c0.39,0.35,0.74,0.46,1.02,0.46
		c0.27,0,0.49-0.12,0.64-0.23c0.05-0.04,0.09-0.08,0.12-0.11h0c0.12-0.14,0.3-0.36,0.37-0.84c0.08-0.5,0.04-1.26-0.28-2.46
		c-0.23-0.87-0.73-1.81-1.26-2.82c-0.95-1.8-2.03-3.83-2.03-6.2c0-3.48,0.82-4.35,1.93-5.51l0,0l0.24-0.25l0,0
		c0.1-0.1,0.2-0.19,0.3-0.27c0.59-0.44,1.36-0.54,2.1-0.41c0.74,0.13,1.46,0.48,1.97,0.97c0.13,0.12,0.25,0.26,0.36,0.4
		c0.29,0.39,0.58,0.75,0.87,1.09c0.63,0.76,1.22,1.46,1.64,2.48c0.22,0.53,0.57,0.95,0.94,1.16c0.16,0.09,0.33,0.14,0.47,0.14
		c0.14,0,0.27-0.06,0.38-0.17l0,0c0.17-0.17,0.29-0.48,0.33-0.96c0.02-0.28,0.05-0.6,0.08-0.96c0.19-2.43,0.52-6.71,1.32-8.3
		c0.46-0.92,0.95-1.62,1.54-2.09c0.6-0.49,1.3-0.75,2.19-0.8c0.9-0.05,1.48,0.1,1.94,0.46c0.46,0.35,0.78,0.89,1.18,1.64v0
		c0.41,0.77,0.54,1.24,0.64,1.59c0.08,0.3,0.14,0.5,0.34,0.72c0.1,0.12,0.22,0.2,0.34,0.25c0.09,0.03,0.18,0.04,0.27,0.03h0
		c0.09-0.02,0.18-0.06,0.27-0.14c0.13-0.11,0.25-0.29,0.34-0.55c0.21-0.57,0.96-1.88,1.95-3c0.66-0.75,1.43-1.41,2.23-1.71
		c1.55-0.58,1.83-0.6,2.82-0.64c0.19-0.01,0.41-0.02,0.68-0.03c0.86-0.05,1.71,0.12,2.43,0.53c0.66,0.38,1.2,0.95,1.54,1.74
		c0.36,0.84,0.55,1.9,0.53,2.91c-0.02,0.96-0.22,1.88-0.65,2.57c-0.41,0.67-0.67,1.2-0.75,1.71c-0.08,0.5,0.02,1,0.31,1.6
		c0.08,0.16,0.14,0.26,0.23,0.31c0.1,0.06,0.25,0.09,0.48,0.11c0.08,0.01,0.21-0.03,0.39-0.08c0.79-0.21,2.27-0.6,4.15,1.48
		c2.11,2.35,1.14,4.02,0.54,5.07h0c-0.06,0.1-0.12,0.2-0.17,0.31h0c-0.32,0.6-1.06,1.69-2.28,2.66c-0.81,0.64-1.83,1.24-3.09,1.61
		c-0.16,0.05-0.56,0.23-1.07,0.46c-0.48,0.22-1.07,0.48-1.65,0.72c-0.85,0.35-1.63,0.73-2.21,1.13c-0.48,0.33-0.82,0.67-0.94,0.99v0
		l-0.06,0.16c-0.26,0.74-0.42,1.2,0.56,2.13c0.65,0.61,1.39,0.47,2.17,0.33c0.5-0.09,1.01-0.19,1.53-0.11
		c0.13,0.02,0.28,0.05,0.43,0.09h0c0.63,0.18,1.34,0.55,1.85,1.15c0.52,0.6,0.83,1.41,0.68,2.46c-0.02,0.17-0.06,0.34-0.11,0.53
		c-0.71,2.55-3.46,3.62-3.66,3.69c-0.17,0.1-3.96,2.16-5.91,2.36c-0.84,0.09-1.8,0.28-2.66,0.5c-1.12,0.28-2.1,0.6-2.51,0.79
		l-0.03,0.01c-0.75,0.34-3.02,1.4-2.71,2.13c0.17,0.41,0.35,0.68,0.59,0.83c0.24,0.15,0.56,0.19,1,0.15
		c0.38-0.04,1.16-0.02,1.95,0.15c0.54,0.11,1.08,0.3,1.5,0.58c0.44,0.29,0.75,0.69,0.8,1.22c0.02,0.17,0.01,0.36-0.03,0.56
		c-0.23,1.09-0.37,1.69-0.57,2.17c-0.2,0.49-0.45,0.83-0.9,1.39c-0.49,0.62-1.25,1.36-2.1,1.97c-0.69,0.49-1.45,0.9-2.18,1.07
		c-0.8,0.19-1.67,0.36-2.41,0.5c-0.75,0.14-1.37,0.26-1.61,0.35c-0.19,0.07-0.56,0.35-0.8,0.67c-0.1,0.14-0.18,0.28-0.2,0.42
		c-0.02,0.12,0,0.23,0.09,0.33l0,0c0.1,0.11,0.27,0.21,0.54,0.28c0.58,0.15,1.07,0.13,1.49,0.11c0.79-0.04,1.36-0.07,1.87,0.93
		c0.32,0.63,0.23,1.28-0.06,1.87c-0.41,0.86-1.23,1.61-1.71,1.94c-0.19,0.13-0.43,0.27-0.68,0.43c-0.79,0.48-1.83,1.1-2.56,2.08
		c-0.49,0.65-0.93,1.27-1.24,1.87c-0.3,0.59-0.47,1.17-0.42,1.77c0.05,0.59-0.09,1.05-0.33,1.41c-0.3,0.46-0.76,0.74-1.18,0.89
		c-0.4,0.14-0.79,0.06-1.17-0.18c-0.36-0.22-0.73-0.56-1.12-0.96c-0.12-0.12-0.25-0.14-0.37-0.13c-0.13,0.01-0.24,0.07-0.3,0.1
		C40.68,72.35,39.94,72.14,39.85,72.11L39.85,72.11z M37.96,72.54c0.2-1.2,1.95-0.7,1.95-0.7l0.01,0c0,0,0.68,0.23,1.2-0.07
		c0.08-0.04,0.23-0.12,0.41-0.14c0.19-0.02,0.41,0.02,0.6,0.21c0.38,0.38,0.73,0.72,1.07,0.92h0c0.31,0.19,0.62,0.26,0.93,0.15
		c0.38-0.13,0.78-0.38,1.04-0.78c0.2-0.31,0.32-0.72,0.28-1.24c-0.05-0.66,0.13-1.29,0.45-1.92c0.32-0.62,0.77-1.25,1.27-1.92
		c0.77-1.02,1.83-1.66,2.64-2.15c0.25-0.15,0.48-0.29,0.67-0.42c0.46-0.32,1.23-1.02,1.62-1.83c0.25-0.52,0.33-1.09,0.06-1.62
		c-0.43-0.84-0.92-0.81-1.61-0.78c-0.44,0.02-0.95,0.05-1.58-0.12c-0.33-0.09-0.56-0.22-0.69-0.37c-0.15-0.17-0.19-0.37-0.15-0.57
		c0.03-0.18,0.13-0.37,0.25-0.54c0.27-0.37,0.7-0.68,0.92-0.77c0.26-0.1,0.89-0.22,1.66-0.36c0.74-0.14,1.61-0.31,2.39-0.5
		c0.69-0.17,1.42-0.56,2.08-1.03c0.83-0.59,1.56-1.31,2.04-1.91c0.43-0.54,0.67-0.87,0.86-1.32c0.19-0.46,0.33-1.05,0.56-2.12v0
		c0.04-0.17,0.05-0.33,0.03-0.47c-0.04-0.43-0.31-0.77-0.68-1.01c-0.39-0.26-0.9-0.43-1.4-0.54c-0.75-0.16-1.5-0.18-1.86-0.14
		c-0.51,0.05-0.88,0-1.18-0.19c-0.3-0.19-0.51-0.5-0.7-0.96c-0.41-0.98,2.05-2.12,2.86-2.5L56,44.83c0.43-0.2,1.42-0.52,2.56-0.8
		c0.88-0.22,1.84-0.41,2.7-0.5c1.93-0.21,5.8-2.33,5.81-2.34l0.01,0l0.01,0c0.01,0,2.79-1.01,3.49-3.51
		c0.05-0.17,0.08-0.33,0.1-0.49c0.14-0.95-0.15-1.69-0.61-2.23c-0.47-0.55-1.13-0.9-1.71-1.06v0c-0.13-0.04-0.26-0.07-0.39-0.08
		c-0.48-0.07-0.97,0.02-1.44,0.11c-0.85,0.16-1.66,0.31-2.41-0.4c-1.12-1.06-0.93-1.59-0.63-2.43l0.06-0.16h0
		c0.13-0.38,0.51-0.76,1.04-1.13c0.6-0.41,1.39-0.8,2.26-1.15c0.57-0.23,1.16-0.5,1.65-0.72c0.52-0.23,0.93-0.42,1.11-0.47
		c1.22-0.36,2.21-0.94,2.99-1.56c1.19-0.94,1.9-2,2.21-2.57h0c0.04-0.08,0.11-0.2,0.18-0.31v0c0.57-0.98,1.47-2.54-0.5-4.73
		c-1.76-1.96-3.14-1.59-3.87-1.4c-0.2,0.05-0.36,0.09-0.48,0.08c-0.28-0.03-0.46-0.06-0.6-0.15h0c-0.15-0.09-0.24-0.22-0.34-0.43
		c-0.32-0.66-0.43-1.2-0.34-1.77c0.08-0.55,0.36-1.12,0.79-1.82c0.39-0.64,0.59-1.51,0.6-2.42c0.02-0.98-0.16-1.99-0.51-2.8
		c-0.31-0.73-0.82-1.26-1.42-1.61c-0.66-0.38-1.46-0.54-2.27-0.49c-0.26,0.01-0.49,0.02-0.69,0.03c-0.96,0.04-1.23,0.05-2.74,0.62
		c-0.74,0.28-1.48,0.92-2.11,1.64c-0.96,1.09-1.69,2.36-1.89,2.91c-0.11,0.3-0.26,0.52-0.42,0.66l0,0c-0.13,0.11-0.26,0.18-0.4,0.2
		c-0.14,0.03-0.29,0.01-0.43-0.04c-0.16-0.06-0.32-0.17-0.45-0.32c-0.24-0.27-0.3-0.5-0.4-0.83c-0.1-0.34-0.23-0.79-0.62-1.53h0
		c-0.38-0.71-0.68-1.23-1.1-1.54c-0.41-0.31-0.93-0.44-1.75-0.4c-0.83,0.05-1.48,0.29-2.03,0.74c-0.56,0.45-1.02,1.12-1.46,2
		c-0.77,1.54-1.1,5.78-1.29,8.2c-0.03,0.38-0.06,0.72-0.08,0.97c-0.05,0.54-0.2,0.91-0.41,1.13c-0.16,0.17-0.36,0.25-0.57,0.26
		c-0.2,0.01-0.42-0.06-0.62-0.17h0c-0.42-0.24-0.82-0.71-1.06-1.3c-0.4-0.98-0.98-1.67-1.6-2.41c-0.29-0.34-0.59-0.7-0.88-1.1
		c-0.09-0.13-0.2-0.25-0.32-0.36c-0.48-0.45-1.14-0.77-1.83-0.89c-0.67-0.12-1.36-0.03-1.89,0.36c-0.09,0.07-0.18,0.15-0.27,0.24h0
		l-0.24,0.25v0c-1.06,1.11-1.85,1.94-1.85,5.31c0,2.3,1.06,4.3,1.99,6.07c0.54,1.03,1.05,1.98,1.29,2.88
		c0.33,1.24,0.37,2.04,0.29,2.57c-0.08,0.55-0.3,0.82-0.44,0.99h0c-0.04,0.04-0.09,0.09-0.15,0.14c-0.18,0.14-0.46,0.29-0.81,0.29
		c-0.34,0.01-0.76-0.13-1.21-0.53v0c-0.15-0.13-0.31-0.3-0.46-0.49c-0.27-0.34-0.48-0.6-0.65-0.83c-0.66-0.85-0.94-1.2-1.55-1.63
		c-0.46-0.32-1.21-0.7-2.03-0.58c-0.56,0.08-1.15,0.39-1.71,1.11c-0.71,0.91-1.08,1.72-1.22,2.68c-0.14,0.97-0.06,2.1,0.14,3.62
		c0.2,1.52,0.68,2.78,1.35,3.84c0.67,1.06,1.54,1.92,2.52,2.63c1.97,1.44,2.77,4.04,2.81,4.17c0.03,0.08,0.68,1.69-0.88,1.08
		c-0.91-0.35-1.3-0.67-1.83-1.09c-0.24-0.19-0.5-0.4-0.85-0.65c-0.04-0.03-0.09-0.06-0.13-0.09c-0.52-0.33-1.14-0.53-1.75-0.46
		c-0.6,0.07-1.2,0.39-1.7,1.09l0,0c-0.03,0.04-0.06,0.09-0.1,0.14h0c-1.05,1.65-0.39,4.36-0.39,4.37l0,0.01
		c0,0.01,0.51,3.22,3.59,4.17c2.73,0.84,3.01,2.15,3.14,2.79c0.02,0.11,0.04,0.2,0.07,0.24c0.11,0.21,0.08,0.56-0.04,0.85l0,0
		c-0.04,0.1-0.1,0.2-0.16,0.28c-0.07,0.09-0.15,0.16-0.24,0.21c-0.13,0.07-0.29,0.08-0.45,0.01c-0.31-0.12-0.56-0.37-0.82-0.61
		c-0.23-0.22-0.46-0.44-0.72-0.55h0c-0.15-0.07-0.47-0.13-0.83-0.12c-0.3,0.01-0.64,0.07-0.94,0.22v0c-0.3,0.15-0.56,0.4-0.73,0.79
		v0c-0.13,0.3-0.2,0.69-0.19,1.18c0.03,1.49,0.51,1.98,1.04,2.53c0.41,0.42,0.85,0.88,1.18,1.81c0.64,1.83,0.47,2.66,0.23,3.75
		c-0.04,0.21-0.09,0.42-0.13,0.65c-0.13,0.7-0.02,1.6,0.24,2.42c0.26,0.82,0.68,1.58,1.17,2.02c0.49,0.44,0.83,0.62,1.16,0.65
		c0.32,0.03,0.64-0.1,1.07-0.29c0.42-0.18,0.67-0.41,0.84-0.71C37.79,73.44,37.88,73.05,37.96,72.54z"/>
	<path class="st6" d="M47.97,63.32c-1.31,0.7-1.39,0.77-2.82,1.65c-0.64,0.35-1.08,0.6-1.72,1.04c-0.84,0.59-0.8,0.68-1.8,1.52
		l-0.01,0.01c-0.12,1.29-0.24,2.57-0.38,3.9c-0.05,3.02-0.48,5.49-1.36,8.15c-0.81,2.87-3.13,6.67-4.51,8.48
		c-0.83-1.22-1.57-1.94-2.58-2.75c3.65-2.62,5.71-6.87,6.35-9.78c0.31-1.4,0.6-4.17,0.93-7.34c-0.05-0.04-0.11-0.11-0.2-0.22
		c-0.84-1-0.79-1.07-1.52-1.8c-0.55-0.55-0.94-0.87-1.51-1.32c-1.27-1.11-1.33-1.19-2.5-2.1c-0.17-0.13-0.33-0.29-0.46-0.41
		c0.07,0.01,1.81,1.07,1.97,1.2c0.74,0.6,1.04,0.73,1.91,1.58c0.43,0.42,2.04,1.87,2.28,2.55c0.03,0.08,0.06,0.16,0.08,0.23
		l0.02-0.21c0.27-2.65,0.55-5.54,0.88-8.11c-0.15-0.99-0.54-2.25-0.98-2.59c-0.03-0.03-1.58-1.85-2.08-2.3
		c-1.52-1.36-2.07-1.01-3.85-2.52c-1.01-0.86-1.46-1.18-1.89-2.4l0.18,0.05c0.23,1.04,2.74,2.93,3.7,3.28
		c1.84,0.68,2.18,1.19,3.79,3.05c0.71,0.82,1.1,1.4,1.29,2.23c0.03-0.23,0.06-0.45,0.1-0.67c0.54-3.51,1.05-6.64,1.86-10.08
		c-0.39-1.9-1.04-2.84-1.78-3.88c-0.03-0.04-1.15-1.75-2.6-3.16c-1.88-1.82-2.16-1.47-4.15-3.68c-1.04-1.15-1.45-2.7-1.6-4.23
		l0.24,0.41c0.84,2.12,0.01,2.43,3.77,5.45c1.98,1.59,2.17,1.43,4.2,3.87c1.2,1.44,1.84,2.33,2.22,3.97
		c0.04-0.15,0.08-0.31,0.12-0.46c1.25-3.58,2.57-6.67,4.13-9.8c0.03-1.81-0.36-2.84-0.81-3.98c-0.02-0.05-0.7-1.96-1.77-3.66
		c-1.39-2.2-1.74-1.93-3.15-4.54c-0.73-1.36-0.77-2.95-0.56-4.47l0.13,0.45c0.32,2.25-0.56,2.35,2.37,6.16
		c1.54,2,1.77,1.9,3.16,4.73c0.79,1.61,1.2,2.6,1.22,4.16c0.21-0.41,0.43-0.83,0.65-1.25c1.2-2.34,2.39-4.51,3.68-6.64
		c0.06-1.48-0.01-2.31-0.01-3.32c0-0.04-0.1-1.33-0.23-2.84c-0.16-1.98,0.01-2.16-0.26-4.42c-0.14-1.18,0.29-2.32,0.87-3.34
		l-0.03,0.36c-0.41,1.69-0.41,1.43-0.19,5.08c0.12,1.9,0.15,2.13,0.34,4.54c0.1,1.23,0.18,1.86,0.27,2.72
		c0.81-1.29,1.67-2.58,2.61-3.9c1.8-2.02,3.49-4.14,5.17-6.26c1.1-1.59,1.97-3.17,2.83-4.87c-0.33,1.01-0.4,1.87-0.98,3.04
		c-1.43,2.49-2.84,4.47-4.85,6.88c-1.58,1.69-2.74,3.84-3.96,5.88c1.46,0.16,2.43-0.01,3.49-0.28c0.05-0.01,2.04-0.53,3.88-1.37
		c2.38-1.1,2.15-1.49,4.93-2.55c1.45-0.55,3.04-0.38,4.53,0.03l-0.47,0.07c-2.28,0.02-2.27-0.87-6.45,1.55
		c-2.2,1.27-2.14,1.41-5.14,2.43c-1.81,0.61-2.86,0.79-4.56,0.73c-0.14,0-0.4,0.02-0.63,0.08l-0.03,0.05
		c-1.87,2.88-3.23,5.68-4.72,8.74c-1.46,2.77-2.65,5.87-3.61,8.8c0.89-1.01,1.81-2.02,2.95-2.87c2.45-1.81,3.01-2.43,5-3.18
		c1.99-0.75,3.87-0.69,5.71-0.96c2.08-0.3,3.92-0.67,5.47-0.21l1.72,0.22c-3.09-0.18-5.43,0.2-7.17,0.52
		c-1.34,0.24-3.27,0.41-3.89,0.57c-2.07,0.56-2.52,0.69-4.71,2.3c-1.77,1.31-2.27,1.77-3.3,2.61c-0.77,0.62-1.31,1.18-2.17,2.21
		l-0.06,0.18c-0.68,2.93-1.01,5.39-1.68,8.63c-0.33,1.37-0.57,2.67-0.75,3.94l0,0c0.55-0.79,1.09-1.62,1.84-2.32
		c1.32-1.23,1.6-1.63,2.72-2.2c1.12-0.58,2.18-1.07,3.24-1.35c1.2-0.32,2.32-0.52,3.34-0.55l1.07,0.06
		c-1.83,0.11-3.27,0.46-4.27,0.76c-0.77,0.23-1.69,0.69-2.3,1.03c-1.1,0.61-1.42,0.6-2.6,1.69c-0.95,0.89-1.21,1.19-1.76,1.76
		c-0.48,0.49-0.79,0.91-1.38,1.83c-0.15,1.15-0.25,2.28-0.35,3.45c-0.14,1.35-0.27,2.67-0.39,3.98c0.55-0.64,2.09-1.62,2.54-1.93
		c1-0.7,1.32-0.78,2.15-1.24c0.18-0.1,2.07-0.85,2.14-0.85C48.34,63.09,48.16,63.22,47.97,63.32z"/>
	<path class="st7" d="M112.58,74.07c0,0.04-0.01,0.08-0.03,0.11c-0.02,0.03-0.06,0.06-0.11,0.08c-0.05,0.02-0.12,0.03-0.21,0.05
		c-0.09,0.01-0.19,0.02-0.33,0.02c-0.13,0-0.23-0.01-0.32-0.02c-0.09-0.01-0.16-0.03-0.21-0.05c-0.05-0.02-0.09-0.04-0.11-0.08
		c-0.02-0.03-0.03-0.07-0.03-0.11v-9.79c0-0.04,0.01-0.08,0.03-0.11c0.02-0.03,0.06-0.06,0.12-0.08c0.06-0.02,0.13-0.03,0.21-0.05
		c0.09-0.01,0.19-0.02,0.31-0.02c0.13,0,0.24,0.01,0.33,0.02c0.09,0.01,0.16,0.03,0.21,0.05c0.05,0.02,0.09,0.04,0.11,0.08
		c0.02,0.03,0.03,0.07,0.03,0.11V74.07L112.58,74.07z M225.9,89.29c0,0.36-0.07,0.69-0.2,0.97c-0.13,0.28-0.33,0.52-0.57,0.72
		c-0.24,0.19-0.54,0.34-0.88,0.44c-0.34,0.1-0.72,0.15-1.13,0.15c-0.25,0-0.49-0.02-0.72-0.06c-0.23-0.04-0.43-0.09-0.61-0.15
		c-0.18-0.06-0.34-0.12-0.46-0.19c-0.12-0.07-0.22-0.13-0.27-0.18c-0.06-0.05-0.1-0.13-0.13-0.22c-0.03-0.09-0.04-0.22-0.04-0.39
		c0-0.1,0.01-0.18,0.02-0.25c0.01-0.07,0.02-0.12,0.04-0.16c0.02-0.04,0.04-0.07,0.07-0.09c0.03-0.02,0.06-0.03,0.1-0.03
		c0.06,0,0.15,0.03,0.26,0.11c0.11,0.07,0.25,0.15,0.42,0.23c0.16,0.08,0.36,0.16,0.59,0.23c0.23,0.07,0.49,0.11,0.78,0.11
		c0.22,0,0.42-0.02,0.6-0.07c0.18-0.05,0.33-0.12,0.47-0.21c0.13-0.09,0.23-0.21,0.3-0.35c0.07-0.14,0.11-0.31,0.11-0.51
		c0-0.2-0.05-0.37-0.15-0.5c-0.1-0.14-0.24-0.26-0.41-0.36c-0.17-0.1-0.36-0.2-0.57-0.28c-0.21-0.08-0.43-0.17-0.65-0.26
		c-0.22-0.09-0.44-0.19-0.65-0.3c-0.21-0.11-0.4-0.25-0.57-0.41c-0.17-0.16-0.3-0.36-0.41-0.58c-0.1-0.23-0.15-0.49-0.15-0.81
		c0-0.28,0.05-0.54,0.16-0.8c0.11-0.26,0.27-0.48,0.48-0.67c0.21-0.19,0.48-0.34,0.81-0.46c0.32-0.12,0.7-0.17,1.13-0.17
		c0.19,0,0.38,0.02,0.57,0.05c0.19,0.03,0.36,0.07,0.51,0.12c0.15,0.05,0.28,0.1,0.39,0.15c0.11,0.05,0.19,0.1,0.24,0.15
		c0.05,0.04,0.09,0.08,0.11,0.11c0.02,0.03,0.03,0.07,0.04,0.11c0.01,0.04,0.01,0.09,0.02,0.15c0.01,0.06,0.01,0.13,0.01,0.21
		c0,0.09-0.01,0.17-0.01,0.23c-0.01,0.07-0.02,0.12-0.04,0.16c-0.02,0.04-0.04,0.07-0.07,0.09c-0.03,0.02-0.06,0.03-0.09,0.03
		c-0.05,0-0.12-0.03-0.21-0.09c-0.09-0.06-0.2-0.12-0.34-0.19c-0.14-0.06-0.31-0.13-0.5-0.19c-0.19-0.06-0.41-0.09-0.66-0.09
		c-0.22,0-0.41,0.02-0.58,0.08c-0.17,0.05-0.31,0.12-0.41,0.21c-0.11,0.09-0.19,0.2-0.24,0.33c-0.05,0.13-0.08,0.26-0.08,0.41
		c0,0.2,0.05,0.38,0.16,0.52c0.1,0.14,0.24,0.26,0.41,0.37c0.17,0.1,0.36,0.2,0.57,0.29c0.22,0.08,0.44,0.17,0.66,0.26
		c0.22,0.09,0.44,0.19,0.66,0.3c0.22,0.11,0.41,0.24,0.58,0.4c0.17,0.16,0.3,0.35,0.4,0.57C225.85,88.72,225.9,88.98,225.9,89.29
		L225.9,89.29z M236.91,81.8c0,0.1-0.01,0.19-0.02,0.26c-0.01,0.08-0.03,0.13-0.05,0.18c-0.03,0.05-0.06,0.08-0.09,0.1
		c-0.03,0.02-0.07,0.03-0.11,0.03h-3.73v3.47h3.53c0.04,0,0.07,0.01,0.11,0.03c0.03,0.02,0.06,0.05,0.09,0.09
		c0.02,0.04,0.04,0.1,0.05,0.17c0.01,0.07,0.02,0.16,0.02,0.27c0,0.1-0.01,0.19-0.02,0.26c-0.01,0.07-0.03,0.13-0.05,0.17
		c-0.03,0.05-0.06,0.08-0.09,0.11c-0.03,0.02-0.07,0.03-0.11,0.03h-3.53v4.25c0,0.03-0.01,0.07-0.03,0.1
		c-0.02,0.03-0.06,0.06-0.11,0.08c-0.05,0.02-0.12,0.03-0.2,0.05c-0.08,0.01-0.19,0.02-0.33,0.02c-0.13,0-0.23-0.01-0.32-0.02
		c-0.09-0.01-0.16-0.03-0.21-0.05c-0.05-0.02-0.09-0.05-0.11-0.08c-0.02-0.03-0.03-0.07-0.03-0.1v-9.44c0-0.2,0.05-0.35,0.16-0.43
		c0.11-0.08,0.22-0.12,0.34-0.12h4.59c0.04,0,0.07,0.01,0.11,0.03c0.03,0.02,0.06,0.05,0.09,0.1c0.02,0.05,0.04,0.11,0.05,0.19
		C236.91,81.61,236.91,81.7,236.91,81.8L236.91,81.8z M240.12,91.22c0,0.04-0.01,0.08-0.03,0.11c-0.02,0.03-0.06,0.05-0.1,0.08
		c-0.05,0.02-0.11,0.04-0.2,0.05c-0.09,0.01-0.19,0.02-0.33,0.02c-0.12,0-0.23-0.01-0.31-0.02c-0.08-0.01-0.15-0.03-0.2-0.05
		c-0.05-0.02-0.09-0.05-0.1-0.08c-0.02-0.03-0.03-0.06-0.03-0.11V80.69c0-0.04,0.01-0.08,0.03-0.11c0.02-0.03,0.05-0.06,0.1-0.08
		c0.05-0.02,0.12-0.03,0.2-0.05c0.09-0.01,0.19-0.02,0.31-0.02c0.13,0,0.24,0.01,0.33,0.02c0.08,0.01,0.15,0.03,0.2,0.05
		c0.05,0.02,0.08,0.05,0.1,0.08c0.02,0.03,0.03,0.07,0.03,0.11V91.22L240.12,91.22z M249.12,87.59c0,0.58-0.08,1.11-0.23,1.6
		c-0.15,0.49-0.38,0.91-0.68,1.26c-0.3,0.35-0.68,0.63-1.13,0.82c-0.45,0.2-0.98,0.3-1.58,0.3c-0.58,0-1.09-0.09-1.52-0.26
		c-0.43-0.17-0.8-0.42-1.08-0.76c-0.29-0.33-0.5-0.73-0.65-1.21c-0.14-0.47-0.21-1.01-0.21-1.61c0-0.58,0.08-1.11,0.22-1.59
		c0.15-0.49,0.38-0.91,0.68-1.26c0.3-0.35,0.68-0.62,1.13-0.82c0.45-0.2,0.98-0.29,1.58-0.29c0.58,0,1.09,0.09,1.52,0.26
		c0.43,0.17,0.8,0.42,1.08,0.76c0.29,0.33,0.51,0.73,0.65,1.2C249.05,86.47,249.12,87,249.12,87.59L249.12,87.59z M247.75,87.68
		c0-0.38-0.04-0.74-0.11-1.09c-0.07-0.34-0.19-0.64-0.35-0.9c-0.16-0.26-0.38-0.46-0.66-0.61c-0.28-0.15-0.63-0.23-1.04-0.23
		c-0.38,0-0.71,0.07-0.99,0.21c-0.27,0.13-0.5,0.33-0.68,0.58c-0.18,0.25-0.31,0.55-0.4,0.89c-0.09,0.34-0.13,0.71-0.13,1.12
		c0,0.39,0.04,0.75,0.1,1.09c0.07,0.34,0.19,0.64,0.36,0.89c0.16,0.26,0.39,0.46,0.66,0.61c0.28,0.15,0.63,0.22,1.04,0.22
		c0.38,0,0.71-0.07,0.98-0.2c0.28-0.14,0.51-0.33,0.69-0.58c0.18-0.24,0.31-0.54,0.4-0.88C247.71,88.46,247.75,88.09,247.75,87.68
		L247.75,87.68z M255.18,84.59c0,0.12,0,0.21-0.01,0.29c-0.01,0.08-0.02,0.14-0.03,0.19c-0.02,0.05-0.04,0.08-0.06,0.1
		c-0.02,0.02-0.06,0.04-0.1,0.04c-0.04,0-0.09-0.01-0.15-0.04c-0.06-0.02-0.13-0.05-0.2-0.07c-0.08-0.02-0.16-0.05-0.26-0.07
		c-0.1-0.02-0.2-0.03-0.31-0.03c-0.13,0-0.26,0.03-0.38,0.08c-0.13,0.05-0.26,0.14-0.4,0.26c-0.14,0.12-0.28,0.28-0.44,0.48
		c-0.15,0.2-0.32,0.44-0.5,0.73v4.67c0,0.04-0.01,0.08-0.03,0.11c-0.02,0.03-0.06,0.05-0.1,0.08c-0.05,0.02-0.11,0.04-0.2,0.05
		c-0.09,0.01-0.19,0.02-0.33,0.02c-0.12,0-0.23-0.01-0.31-0.02c-0.08-0.01-0.15-0.03-0.2-0.05c-0.05-0.02-0.09-0.05-0.1-0.08
		c-0.02-0.03-0.03-0.06-0.03-0.11v-7.09c0-0.04,0.01-0.08,0.02-0.11c0.02-0.03,0.05-0.05,0.09-0.08c0.05-0.02,0.11-0.04,0.18-0.05
		c0.07-0.01,0.17-0.01,0.29-0.01c0.12,0,0.21,0.01,0.29,0.01c0.08,0.01,0.13,0.02,0.18,0.05c0.04,0.02,0.07,0.05,0.09,0.08
		c0.02,0.03,0.03,0.06,0.03,0.11v1.03c0.19-0.29,0.38-0.52,0.55-0.69c0.17-0.18,0.33-0.32,0.49-0.42c0.15-0.1,0.3-0.17,0.45-0.21
		c0.15-0.04,0.3-0.06,0.45-0.06c0.07,0,0.15,0.01,0.23,0.01c0.09,0.01,0.18,0.02,0.27,0.04c0.09,0.02,0.18,0.04,0.26,0.07
		c0.08,0.03,0.13,0.05,0.16,0.08c0.03,0.03,0.05,0.05,0.06,0.08c0.01,0.02,0.02,0.05,0.03,0.09c0.01,0.04,0.01,0.09,0.02,0.16
		C255.18,84.37,255.18,84.47,255.18,84.59L255.18,84.59z M262.5,87.36c0,0.2-0.05,0.35-0.15,0.44c-0.1,0.09-0.22,0.13-0.35,0.13
		h-4.65c0,0.4,0.04,0.75,0.12,1.06c0.08,0.31,0.21,0.58,0.4,0.81c0.18,0.23,0.42,0.4,0.72,0.52c0.3,0.12,0.65,0.18,1.08,0.18
		c0.34,0,0.63-0.03,0.9-0.08c0.26-0.05,0.49-0.12,0.68-0.19c0.19-0.07,0.35-0.13,0.47-0.18c0.12-0.06,0.21-0.08,0.28-0.08
		c0.03,0,0.07,0.01,0.1,0.03c0.03,0.02,0.05,0.05,0.07,0.08c0.02,0.04,0.03,0.09,0.04,0.15c0.01,0.06,0.01,0.15,0.01,0.24
		c0,0.07,0,0.13-0.01,0.18c-0.01,0.05-0.01,0.09-0.02,0.13c-0.01,0.04-0.02,0.08-0.04,0.11c-0.02,0.03-0.04,0.06-0.07,0.09
		c-0.03,0.03-0.12,0.08-0.26,0.14c-0.14,0.06-0.33,0.13-0.55,0.19c-0.23,0.06-0.49,0.12-0.78,0.17c-0.3,0.05-0.61,0.08-0.95,0.08
		c-0.58,0-1.09-0.08-1.53-0.24c-0.44-0.16-0.81-0.41-1.11-0.73c-0.3-0.32-0.52-0.72-0.68-1.2c-0.15-0.48-0.23-1.05-0.23-1.69
		c0-0.61,0.08-1.16,0.24-1.64c0.16-0.48,0.38-0.9,0.68-1.24c0.3-0.34,0.65-0.6,1.08-0.78c0.42-0.18,0.89-0.27,1.41-0.27
		c0.56,0,1.03,0.09,1.42,0.27c0.39,0.18,0.71,0.42,0.97,0.72c0.25,0.3,0.44,0.66,0.55,1.06c0.12,0.41,0.18,0.84,0.18,1.3V87.36
		L262.5,87.36z M261.19,86.98c0.02-0.68-0.13-1.22-0.45-1.61c-0.32-0.39-0.79-0.58-1.41-0.58c-0.32,0-0.6,0.06-0.84,0.18
		c-0.24,0.12-0.44,0.28-0.61,0.48c-0.16,0.2-0.29,0.43-0.38,0.7c-0.09,0.27-0.14,0.54-0.15,0.83H261.19L261.19,86.98z M268.93,89.29
		c0,0.36-0.07,0.69-0.2,0.97c-0.13,0.28-0.33,0.52-0.57,0.72c-0.25,0.19-0.54,0.34-0.88,0.44c-0.34,0.1-0.72,0.15-1.13,0.15
		c-0.25,0-0.49-0.02-0.72-0.06c-0.23-0.04-0.43-0.09-0.61-0.15c-0.18-0.06-0.34-0.12-0.46-0.19c-0.12-0.07-0.22-0.13-0.27-0.18
		c-0.06-0.05-0.1-0.13-0.13-0.22c-0.03-0.09-0.04-0.22-0.04-0.39c0-0.1,0.01-0.18,0.02-0.25c0.01-0.07,0.02-0.12,0.04-0.16
		c0.02-0.04,0.04-0.07,0.07-0.09c0.03-0.02,0.06-0.03,0.1-0.03c0.06,0,0.15,0.03,0.26,0.11c0.11,0.07,0.25,0.15,0.42,0.23
		c0.16,0.08,0.36,0.16,0.59,0.23c0.23,0.07,0.49,0.11,0.78,0.11c0.22,0,0.42-0.02,0.6-0.07c0.18-0.05,0.33-0.12,0.47-0.21
		c0.13-0.09,0.23-0.21,0.3-0.35c0.07-0.14,0.11-0.31,0.11-0.51c0-0.2-0.05-0.37-0.15-0.5c-0.1-0.14-0.24-0.26-0.41-0.36
		c-0.17-0.1-0.36-0.2-0.57-0.28c-0.21-0.08-0.43-0.17-0.65-0.26c-0.22-0.09-0.44-0.19-0.65-0.3c-0.21-0.11-0.4-0.25-0.57-0.41
		c-0.17-0.16-0.3-0.36-0.41-0.58c-0.1-0.23-0.15-0.49-0.15-0.81c0-0.28,0.05-0.54,0.16-0.8c0.11-0.26,0.27-0.48,0.48-0.67
		c0.22-0.19,0.48-0.34,0.81-0.46c0.32-0.12,0.7-0.17,1.13-0.17c0.19,0,0.38,0.02,0.57,0.05c0.19,0.03,0.36,0.07,0.51,0.12
		c0.15,0.05,0.28,0.1,0.39,0.15c0.11,0.05,0.19,0.1,0.24,0.15c0.05,0.04,0.09,0.08,0.11,0.11c0.02,0.03,0.03,0.07,0.04,0.11
		c0.01,0.04,0.01,0.09,0.02,0.15c0.01,0.06,0.01,0.13,0.01,0.21c0,0.09-0.01,0.17-0.01,0.23c-0.01,0.07-0.02,0.12-0.04,0.16
		c-0.02,0.04-0.04,0.07-0.07,0.09c-0.03,0.02-0.06,0.03-0.09,0.03c-0.05,0-0.12-0.03-0.21-0.09c-0.09-0.06-0.2-0.12-0.34-0.19
		c-0.14-0.06-0.31-0.13-0.5-0.19c-0.19-0.06-0.41-0.09-0.66-0.09c-0.22,0-0.41,0.02-0.58,0.08c-0.17,0.05-0.31,0.12-0.41,0.21
		c-0.11,0.09-0.19,0.2-0.24,0.33c-0.05,0.13-0.08,0.26-0.08,0.41c0,0.2,0.05,0.38,0.16,0.52c0.1,0.14,0.24,0.26,0.41,0.37
		c0.17,0.1,0.36,0.2,0.57,0.29c0.22,0.08,0.44,0.17,0.66,0.26c0.22,0.09,0.44,0.19,0.66,0.3c0.22,0.11,0.41,0.24,0.58,0.4
		c0.17,0.16,0.3,0.35,0.4,0.57C268.88,88.72,268.93,88.98,268.93,89.29L268.93,89.29z M274.29,90.7c0,0.15-0.01,0.27-0.03,0.36
		c-0.02,0.09-0.05,0.16-0.1,0.2c-0.04,0.04-0.1,0.08-0.19,0.12c-0.08,0.04-0.18,0.07-0.29,0.09c-0.11,0.02-0.22,0.04-0.34,0.06
		c-0.12,0.02-0.24,0.02-0.36,0.02c-0.37,0-0.68-0.05-0.95-0.15c-0.26-0.1-0.48-0.24-0.65-0.44c-0.17-0.2-0.29-0.45-0.37-0.75
		c-0.08-0.3-0.11-0.66-0.11-1.07V85h-0.99c-0.08,0-0.14-0.04-0.19-0.13c-0.05-0.08-0.07-0.22-0.07-0.41c0-0.1,0.01-0.18,0.02-0.25
		c0.01-0.07,0.03-0.12,0.05-0.17c0.02-0.04,0.05-0.08,0.08-0.09c0.03-0.02,0.07-0.03,0.11-0.03h0.99v-1.69
		c0-0.04,0.01-0.07,0.03-0.1c0.02-0.03,0.05-0.06,0.1-0.08c0.05-0.02,0.12-0.04,0.2-0.05c0.08-0.01,0.19-0.02,0.31-0.02
		c0.13,0,0.24,0.01,0.32,0.02c0.08,0.01,0.15,0.03,0.2,0.05c0.05,0.02,0.08,0.05,0.1,0.08c0.02,0.03,0.03,0.06,0.03,0.1v1.69h1.82
		c0.04,0,0.08,0.01,0.11,0.03c0.03,0.02,0.06,0.05,0.08,0.09c0.02,0.05,0.04,0.1,0.05,0.17c0.01,0.07,0.02,0.15,0.02,0.25
		c0,0.19-0.02,0.33-0.07,0.41c-0.05,0.09-0.11,0.13-0.19,0.13h-1.82v3.96c0,0.49,0.07,0.86,0.22,1.11c0.15,0.25,0.4,0.37,0.78,0.37
		c0.12,0,0.23-0.01,0.32-0.04c0.09-0.02,0.18-0.05,0.25-0.08c0.07-0.03,0.14-0.05,0.19-0.08c0.05-0.02,0.1-0.03,0.14-0.03
		c0.03,0,0.05,0.01,0.08,0.02c0.02,0.01,0.04,0.04,0.05,0.08c0.01,0.04,0.03,0.09,0.03,0.15C274.29,90.52,274.29,90.6,274.29,90.7
		L274.29,90.7z M281.16,91.23c0,0.06-0.02,0.11-0.06,0.14c-0.04,0.03-0.1,0.06-0.17,0.07c-0.08,0.02-0.18,0.02-0.32,0.02
		c-0.14,0-0.25-0.01-0.33-0.02c-0.08-0.02-0.14-0.04-0.18-0.07c-0.04-0.03-0.05-0.08-0.05-0.14v-0.71
		c-0.31,0.33-0.66,0.59-1.04,0.77c-0.38,0.18-0.78,0.28-1.21,0.28c-0.37,0-0.71-0.05-1.01-0.15c-0.3-0.1-0.56-0.24-0.77-0.42
		c-0.21-0.19-0.38-0.41-0.5-0.68c-0.12-0.27-0.17-0.57-0.17-0.91c0-0.4,0.08-0.75,0.24-1.04c0.16-0.29,0.4-0.54,0.7-0.73
		c0.3-0.2,0.68-0.34,1.12-0.44c0.44-0.1,0.94-0.14,1.49-0.14h0.98V86.5c0-0.27-0.03-0.52-0.09-0.73c-0.06-0.21-0.15-0.38-0.28-0.52
		c-0.13-0.14-0.3-0.25-0.5-0.32c-0.2-0.07-0.46-0.1-0.76-0.1c-0.32,0-0.61,0.04-0.86,0.11c-0.26,0.08-0.48,0.16-0.67,0.25
		c-0.19,0.09-0.35,0.17-0.48,0.25c-0.13,0.08-0.22,0.11-0.29,0.11c-0.04,0-0.08-0.01-0.11-0.03c-0.03-0.02-0.06-0.05-0.08-0.1
		c-0.02-0.04-0.04-0.09-0.05-0.16c-0.01-0.06-0.02-0.14-0.02-0.22c0-0.13,0.01-0.24,0.03-0.31c0.02-0.08,0.06-0.15,0.13-0.22
		c0.07-0.07,0.19-0.15,0.37-0.24c0.17-0.09,0.37-0.17,0.6-0.25c0.23-0.08,0.47-0.14,0.74-0.19c0.27-0.05,0.54-0.08,0.81-0.08
		c0.51,0,0.94,0.06,1.3,0.17c0.36,0.12,0.65,0.28,0.87,0.51c0.22,0.22,0.38,0.5,0.48,0.83c0.1,0.33,0.15,0.72,0.15,1.16V91.23
		L281.16,91.23z M279.87,87.99h-1.11c-0.36,0-0.67,0.03-0.93,0.09c-0.26,0.06-0.48,0.15-0.65,0.27c-0.17,0.12-0.3,0.26-0.38,0.42
		c-0.08,0.17-0.12,0.36-0.12,0.57c0,0.37,0.12,0.66,0.35,0.88c0.23,0.22,0.56,0.33,0.98,0.33c0.34,0,0.66-0.09,0.95-0.26
		c0.29-0.17,0.6-0.44,0.92-0.8V87.99L279.87,87.99z M288,89.29c0,0.36-0.07,0.69-0.2,0.97c-0.13,0.28-0.33,0.52-0.57,0.72
		c-0.24,0.19-0.54,0.34-0.88,0.44c-0.34,0.1-0.72,0.15-1.13,0.15c-0.25,0-0.49-0.02-0.72-0.06c-0.23-0.04-0.43-0.09-0.61-0.15
		c-0.18-0.06-0.34-0.12-0.46-0.19c-0.12-0.07-0.22-0.13-0.27-0.18c-0.06-0.05-0.1-0.13-0.13-0.22c-0.03-0.09-0.04-0.22-0.04-0.39
		c0-0.1,0.01-0.18,0.02-0.25c0.01-0.07,0.02-0.12,0.04-0.16c0.02-0.04,0.04-0.07,0.07-0.09c0.03-0.02,0.06-0.03,0.1-0.03
		c0.06,0,0.15,0.03,0.26,0.11c0.11,0.07,0.25,0.15,0.42,0.23c0.16,0.08,0.36,0.16,0.59,0.23c0.23,0.07,0.49,0.11,0.78,0.11
		c0.22,0,0.42-0.02,0.6-0.07c0.18-0.05,0.33-0.12,0.47-0.21c0.13-0.09,0.23-0.21,0.3-0.35c0.07-0.14,0.11-0.31,0.11-0.51
		c0-0.2-0.05-0.37-0.15-0.5c-0.1-0.14-0.24-0.26-0.41-0.36c-0.17-0.1-0.36-0.2-0.57-0.28c-0.21-0.08-0.43-0.17-0.65-0.26
		c-0.22-0.09-0.44-0.19-0.65-0.3c-0.21-0.11-0.4-0.25-0.57-0.41c-0.17-0.16-0.3-0.36-0.41-0.58c-0.1-0.23-0.15-0.49-0.15-0.81
		c0-0.28,0.05-0.54,0.16-0.8c0.11-0.26,0.27-0.48,0.48-0.67c0.21-0.19,0.48-0.34,0.81-0.46c0.32-0.12,0.7-0.17,1.13-0.17
		c0.19,0,0.38,0.02,0.57,0.05c0.19,0.03,0.36,0.07,0.51,0.12c0.15,0.05,0.28,0.1,0.39,0.15c0.11,0.05,0.19,0.1,0.24,0.15
		c0.05,0.04,0.09,0.08,0.11,0.11c0.02,0.03,0.03,0.07,0.04,0.11c0.01,0.04,0.01,0.09,0.02,0.15c0.01,0.06,0.01,0.13,0.01,0.21
		c0,0.09-0.01,0.17-0.01,0.23c-0.01,0.07-0.02,0.12-0.04,0.16c-0.02,0.04-0.04,0.07-0.07,0.09c-0.03,0.02-0.06,0.03-0.09,0.03
		c-0.05,0-0.12-0.03-0.21-0.09c-0.09-0.06-0.2-0.12-0.34-0.19c-0.14-0.06-0.31-0.13-0.5-0.19c-0.19-0.06-0.41-0.09-0.66-0.09
		c-0.22,0-0.41,0.02-0.58,0.08c-0.17,0.05-0.31,0.12-0.41,0.21c-0.11,0.09-0.19,0.2-0.24,0.33c-0.05,0.13-0.08,0.26-0.08,0.41
		c0,0.2,0.05,0.38,0.16,0.52c0.11,0.14,0.24,0.26,0.41,0.37c0.17,0.1,0.36,0.2,0.57,0.29c0.22,0.08,0.44,0.17,0.66,0.26
		c0.22,0.09,0.44,0.19,0.66,0.3c0.22,0.11,0.41,0.24,0.58,0.4c0.17,0.16,0.3,0.35,0.4,0.57C287.95,88.72,288,88.98,288,89.29
		L288,89.29z M124.89,91.23c0,0.06-0.02,0.11-0.06,0.14c-0.04,0.03-0.1,0.06-0.17,0.07c-0.08,0.02-0.18,0.02-0.32,0.02
		c-0.14,0-0.25-0.01-0.33-0.02c-0.08-0.02-0.14-0.04-0.18-0.07c-0.04-0.03-0.05-0.08-0.05-0.14v-0.71
		c-0.31,0.33-0.66,0.59-1.04,0.77c-0.38,0.18-0.78,0.28-1.21,0.28c-0.37,0-0.71-0.05-1.01-0.15c-0.3-0.1-0.56-0.24-0.77-0.42
		c-0.21-0.19-0.38-0.41-0.5-0.68c-0.12-0.27-0.18-0.57-0.18-0.91c0-0.4,0.08-0.75,0.24-1.04c0.16-0.29,0.4-0.54,0.7-0.73
		c0.3-0.2,0.68-0.34,1.12-0.44c0.44-0.1,0.94-0.14,1.49-0.14h0.98V86.5c0-0.27-0.03-0.52-0.09-0.73c-0.06-0.21-0.15-0.38-0.28-0.52
		c-0.13-0.14-0.3-0.25-0.5-0.32c-0.2-0.07-0.46-0.1-0.76-0.1c-0.32,0-0.61,0.04-0.86,0.11c-0.26,0.08-0.48,0.16-0.67,0.25
		c-0.19,0.09-0.35,0.17-0.48,0.25c-0.13,0.08-0.22,0.11-0.29,0.11c-0.04,0-0.08-0.01-0.11-0.03c-0.03-0.02-0.06-0.05-0.08-0.1
		c-0.02-0.04-0.04-0.09-0.05-0.16c-0.01-0.06-0.02-0.14-0.02-0.22c0-0.13,0.01-0.24,0.03-0.31c0.02-0.08,0.06-0.15,0.13-0.22
		c0.07-0.07,0.19-0.15,0.37-0.24c0.17-0.09,0.37-0.17,0.6-0.25c0.23-0.08,0.47-0.14,0.74-0.19c0.27-0.05,0.54-0.08,0.81-0.08
		c0.51,0,0.94,0.06,1.3,0.17c0.36,0.12,0.65,0.28,0.87,0.51c0.22,0.22,0.38,0.5,0.48,0.83c0.1,0.33,0.15,0.72,0.15,1.16V91.23
		L124.89,91.23z M123.6,87.99h-1.11c-0.36,0-0.67,0.03-0.93,0.09c-0.26,0.06-0.48,0.15-0.65,0.27c-0.17,0.12-0.3,0.26-0.38,0.42
		c-0.08,0.17-0.12,0.36-0.12,0.57c0,0.37,0.12,0.66,0.35,0.88c0.23,0.22,0.56,0.33,0.98,0.33c0.34,0,0.66-0.09,0.95-0.26
		c0.29-0.17,0.6-0.44,0.92-0.8V87.99L123.6,87.99z M138.78,90.85c0,0.1-0.02,0.19-0.05,0.27c-0.03,0.07-0.08,0.13-0.13,0.18
		c-0.05,0.05-0.12,0.08-0.19,0.1c-0.07,0.02-0.13,0.03-0.2,0.03h-0.43c-0.14,0-0.26-0.02-0.36-0.04c-0.1-0.03-0.2-0.08-0.29-0.16
		c-0.09-0.08-0.18-0.18-0.27-0.31c-0.09-0.13-0.19-0.3-0.3-0.5l-3.21-5.8c-0.17-0.3-0.34-0.61-0.51-0.94
		c-0.17-0.33-0.33-0.65-0.48-0.96h-0.02c0.01,0.38,0.02,0.76,0.02,1.16c0,0.4,0.01,0.79,0.01,1.18v6.15c0,0.03-0.01,0.07-0.03,0.1
		c-0.02,0.03-0.06,0.06-0.11,0.08c-0.05,0.02-0.12,0.03-0.2,0.05c-0.08,0.01-0.19,0.02-0.31,0.02c-0.13,0-0.23-0.01-0.31-0.02
		c-0.08-0.01-0.15-0.03-0.19-0.05c-0.05-0.02-0.08-0.05-0.1-0.08c-0.02-0.03-0.03-0.07-0.03-0.1V81.8c0-0.21,0.06-0.36,0.17-0.45
		c0.12-0.09,0.24-0.13,0.38-0.13h0.65c0.15,0,0.28,0.01,0.38,0.04c0.1,0.02,0.2,0.07,0.28,0.13c0.08,0.06,0.16,0.15,0.24,0.25
		c0.08,0.11,0.16,0.24,0.25,0.41l2.47,4.48c0.15,0.27,0.3,0.54,0.44,0.8c0.14,0.26,0.28,0.52,0.41,0.77
		c0.13,0.25,0.26,0.5,0.39,0.74c0.13,0.24,0.26,0.49,0.38,0.73h0.01c-0.01-0.41-0.02-0.84-0.02-1.29c0-0.45,0-0.88,0-1.3v-5.53
		c0-0.04,0.01-0.07,0.03-0.1c0.02-0.03,0.06-0.06,0.11-0.08c0.05-0.02,0.12-0.04,0.2-0.05c0.08-0.01,0.19-0.02,0.32-0.02
		c0.12,0,0.22,0.01,0.3,0.02c0.08,0.01,0.15,0.03,0.2,0.05c0.05,0.02,0.08,0.05,0.1,0.08c0.02,0.03,0.03,0.06,0.03,0.1V90.85
		L138.78,90.85z M146.68,91.23c0,0.06-0.02,0.11-0.06,0.14c-0.04,0.03-0.1,0.06-0.17,0.07c-0.08,0.02-0.18,0.02-0.32,0.02
		c-0.14,0-0.25-0.01-0.33-0.02c-0.08-0.02-0.14-0.04-0.18-0.07c-0.04-0.03-0.05-0.08-0.05-0.14v-0.71
		c-0.31,0.33-0.66,0.59-1.04,0.77c-0.38,0.18-0.78,0.28-1.21,0.28c-0.37,0-0.71-0.05-1.01-0.15c-0.3-0.1-0.56-0.24-0.77-0.42
		c-0.21-0.19-0.38-0.41-0.5-0.68c-0.12-0.27-0.17-0.57-0.17-0.91c0-0.4,0.08-0.75,0.24-1.04c0.16-0.29,0.4-0.54,0.7-0.73
		c0.3-0.2,0.68-0.34,1.12-0.44c0.44-0.1,0.94-0.14,1.49-0.14h0.98V86.5c0-0.27-0.03-0.52-0.09-0.73c-0.06-0.21-0.15-0.38-0.28-0.52
		c-0.13-0.14-0.3-0.25-0.5-0.32c-0.2-0.07-0.46-0.1-0.76-0.1c-0.32,0-0.61,0.04-0.86,0.11c-0.26,0.08-0.48,0.16-0.67,0.25
		c-0.19,0.09-0.35,0.17-0.48,0.25c-0.13,0.08-0.22,0.11-0.29,0.11c-0.04,0-0.08-0.01-0.11-0.03c-0.03-0.02-0.06-0.05-0.08-0.1
		c-0.02-0.04-0.04-0.09-0.05-0.16c-0.01-0.06-0.02-0.14-0.02-0.22c0-0.13,0.01-0.24,0.03-0.31c0.02-0.08,0.06-0.15,0.13-0.22
		c0.07-0.07,0.19-0.15,0.37-0.24c0.17-0.09,0.37-0.17,0.6-0.25c0.23-0.08,0.47-0.14,0.74-0.19c0.27-0.05,0.54-0.08,0.81-0.08
		c0.51,0,0.94,0.06,1.3,0.17c0.36,0.12,0.65,0.28,0.87,0.51c0.22,0.22,0.38,0.5,0.48,0.83c0.1,0.33,0.15,0.72,0.15,1.16V91.23
		L146.68,91.23z M145.39,87.99h-1.11c-0.36,0-0.67,0.03-0.93,0.09c-0.26,0.06-0.48,0.15-0.65,0.27c-0.17,0.12-0.3,0.26-0.38,0.42
		c-0.08,0.17-0.12,0.36-0.12,0.57c0,0.37,0.12,0.66,0.35,0.88c0.23,0.22,0.56,0.33,0.98,0.33c0.34,0,0.66-0.09,0.95-0.26
		c0.29-0.17,0.6-0.44,0.92-0.8V87.99L145.39,87.99z M152.61,90.7c0,0.15-0.01,0.27-0.03,0.36c-0.02,0.09-0.05,0.16-0.1,0.2
		c-0.04,0.04-0.1,0.08-0.19,0.12c-0.08,0.04-0.18,0.07-0.29,0.09c-0.11,0.02-0.22,0.04-0.34,0.06c-0.12,0.02-0.24,0.02-0.36,0.02
		c-0.37,0-0.68-0.05-0.95-0.15c-0.26-0.1-0.48-0.24-0.65-0.44c-0.17-0.2-0.29-0.45-0.37-0.75c-0.08-0.3-0.11-0.66-0.11-1.07V85h-1
		c-0.08,0-0.14-0.04-0.19-0.13c-0.05-0.08-0.07-0.22-0.07-0.41c0-0.1,0.01-0.18,0.02-0.25c0.01-0.07,0.03-0.12,0.05-0.17
		c0.02-0.04,0.05-0.08,0.08-0.09c0.03-0.02,0.07-0.03,0.11-0.03h0.99v-1.69c0-0.04,0.01-0.07,0.03-0.1c0.02-0.03,0.05-0.06,0.1-0.08
		c0.05-0.02,0.12-0.04,0.2-0.05c0.08-0.01,0.19-0.02,0.31-0.02c0.13,0,0.24,0.01,0.32,0.02c0.08,0.01,0.15,0.03,0.2,0.05
		c0.05,0.02,0.08,0.05,0.1,0.08c0.02,0.03,0.03,0.06,0.03,0.1v1.69h1.82c0.04,0,0.08,0.01,0.11,0.03c0.03,0.02,0.06,0.05,0.08,0.09
		c0.02,0.05,0.04,0.1,0.05,0.17c0.01,0.07,0.02,0.15,0.02,0.25c0,0.19-0.02,0.33-0.07,0.41c-0.05,0.09-0.11,0.13-0.19,0.13h-1.82
		v3.96c0,0.49,0.07,0.86,0.22,1.11c0.15,0.25,0.4,0.37,0.78,0.37c0.12,0,0.23-0.01,0.32-0.04c0.09-0.02,0.18-0.05,0.25-0.08
		c0.07-0.03,0.14-0.05,0.19-0.08c0.05-0.02,0.1-0.03,0.14-0.03c0.03,0,0.05,0.01,0.08,0.02c0.02,0.01,0.04,0.04,0.05,0.08
		c0.01,0.04,0.03,0.09,0.03,0.15C152.6,90.52,152.61,90.6,152.61,90.7L152.61,90.7z M160.4,91.22c0,0.04-0.01,0.08-0.03,0.11
		c-0.02,0.03-0.05,0.05-0.1,0.08c-0.05,0.02-0.11,0.04-0.19,0.05c-0.08,0.01-0.17,0.02-0.28,0.02c-0.12,0-0.22-0.01-0.3-0.02
		c-0.08-0.01-0.13-0.03-0.18-0.05c-0.05-0.02-0.08-0.05-0.09-0.08c-0.01-0.03-0.02-0.06-0.02-0.11v-0.94
		c-0.41,0.45-0.8,0.77-1.2,0.98c-0.39,0.21-0.79,0.31-1.2,0.31c-0.47,0-0.87-0.08-1.19-0.24c-0.32-0.16-0.58-0.37-0.78-0.64
		c-0.2-0.27-0.34-0.59-0.43-0.95c-0.09-0.36-0.13-0.8-0.13-1.31v-4.3c0-0.04,0.01-0.08,0.03-0.11c0.02-0.03,0.05-0.05,0.1-0.08
		c0.05-0.02,0.12-0.04,0.21-0.05c0.08-0.01,0.19-0.01,0.31-0.01c0.13,0,0.23,0.01,0.31,0.01c0.08,0.01,0.15,0.02,0.2,0.05
		c0.05,0.02,0.08,0.05,0.1,0.08c0.02,0.03,0.03,0.06,0.03,0.11v4.13c0,0.41,0.03,0.75,0.09,1c0.06,0.25,0.15,0.46,0.27,0.64
		c0.12,0.18,0.28,0.31,0.47,0.41c0.19,0.1,0.41,0.15,0.66,0.15c0.33,0,0.65-0.12,0.97-0.35c0.33-0.23,0.67-0.57,1.03-1.02v-4.96
		c0-0.04,0.01-0.08,0.03-0.11c0.02-0.03,0.05-0.05,0.11-0.08c0.05-0.02,0.12-0.04,0.2-0.05c0.08-0.01,0.19-0.01,0.32-0.01
		c0.13,0,0.23,0.01,0.31,0.01c0.08,0.01,0.15,0.02,0.2,0.05c0.05,0.02,0.08,0.05,0.11,0.08c0.02,0.03,0.04,0.06,0.04,0.11V91.22
		L160.4,91.22z M166.95,84.59c0,0.12,0,0.21-0.01,0.29c-0.01,0.08-0.02,0.14-0.03,0.19c-0.02,0.05-0.04,0.08-0.06,0.1
		c-0.02,0.02-0.06,0.04-0.1,0.04c-0.04,0-0.09-0.01-0.15-0.04c-0.06-0.02-0.13-0.05-0.2-0.07c-0.08-0.02-0.16-0.05-0.26-0.07
		c-0.1-0.02-0.2-0.03-0.31-0.03c-0.13,0-0.26,0.03-0.38,0.08c-0.13,0.05-0.26,0.14-0.4,0.26c-0.14,0.12-0.28,0.28-0.44,0.48
		c-0.15,0.2-0.32,0.44-0.5,0.73v4.67c0,0.04-0.01,0.08-0.03,0.11c-0.02,0.03-0.06,0.05-0.1,0.08c-0.05,0.02-0.11,0.04-0.2,0.05
		c-0.09,0.01-0.19,0.02-0.33,0.02c-0.12,0-0.23-0.01-0.31-0.02c-0.08-0.01-0.15-0.03-0.2-0.05c-0.05-0.02-0.09-0.05-0.1-0.08
		c-0.02-0.03-0.03-0.06-0.03-0.11v-7.09c0-0.04,0.01-0.08,0.02-0.11c0.02-0.03,0.05-0.05,0.09-0.08c0.05-0.02,0.11-0.04,0.18-0.05
		c0.07-0.01,0.17-0.01,0.29-0.01c0.12,0,0.21,0.01,0.29,0.01c0.08,0.01,0.13,0.02,0.18,0.05c0.04,0.02,0.07,0.05,0.09,0.08
		c0.02,0.03,0.03,0.06,0.03,0.11v1.03c0.19-0.29,0.38-0.52,0.55-0.69c0.17-0.18,0.33-0.32,0.49-0.42c0.15-0.1,0.3-0.17,0.45-0.21
		c0.15-0.04,0.3-0.06,0.45-0.06c0.07,0,0.15,0.01,0.23,0.01c0.09,0.01,0.18,0.02,0.27,0.04c0.09,0.02,0.18,0.04,0.26,0.07
		c0.08,0.03,0.13,0.05,0.16,0.08c0.03,0.03,0.05,0.05,0.06,0.08c0.01,0.02,0.02,0.05,0.03,0.09c0.01,0.04,0.01,0.09,0.02,0.16
		C166.95,84.37,166.95,84.47,166.95,84.59L166.95,84.59z M174.27,87.36c0,0.2-0.05,0.35-0.15,0.44c-0.1,0.09-0.22,0.13-0.35,0.13
		h-4.65c0,0.4,0.04,0.75,0.12,1.06c0.08,0.31,0.21,0.58,0.4,0.81c0.18,0.23,0.42,0.4,0.72,0.52c0.3,0.12,0.65,0.18,1.08,0.18
		c0.34,0,0.63-0.03,0.9-0.08c0.26-0.05,0.49-0.12,0.68-0.19c0.19-0.07,0.35-0.13,0.47-0.18c0.12-0.06,0.21-0.08,0.28-0.08
		c0.03,0,0.07,0.01,0.1,0.03c0.03,0.02,0.05,0.05,0.07,0.08c0.02,0.04,0.03,0.09,0.04,0.15c0.01,0.06,0.01,0.15,0.01,0.24
		c0,0.07,0,0.13-0.01,0.18c-0.01,0.05-0.01,0.09-0.02,0.13c-0.01,0.04-0.02,0.08-0.04,0.11c-0.02,0.03-0.04,0.06-0.07,0.09
		c-0.03,0.03-0.12,0.08-0.26,0.14c-0.14,0.06-0.33,0.13-0.55,0.19c-0.23,0.06-0.49,0.12-0.78,0.17c-0.3,0.05-0.61,0.08-0.95,0.08
		c-0.58,0-1.09-0.08-1.53-0.24c-0.44-0.16-0.81-0.41-1.11-0.73c-0.3-0.32-0.52-0.72-0.68-1.2c-0.15-0.48-0.23-1.05-0.23-1.69
		c0-0.61,0.08-1.16,0.24-1.64c0.16-0.48,0.38-0.9,0.68-1.24c0.3-0.34,0.65-0.6,1.08-0.78c0.42-0.18,0.89-0.27,1.41-0.27
		c0.56,0,1.03,0.09,1.42,0.27c0.39,0.18,0.71,0.42,0.97,0.72c0.25,0.3,0.44,0.66,0.55,1.06c0.12,0.41,0.18,0.84,0.18,1.3V87.36
		L174.27,87.36z M172.96,86.98c0.02-0.68-0.13-1.22-0.45-1.61c-0.32-0.39-0.79-0.58-1.41-0.58c-0.32,0-0.6,0.06-0.84,0.18
		c-0.24,0.12-0.44,0.28-0.61,0.48c-0.16,0.2-0.29,0.43-0.38,0.7c-0.09,0.27-0.14,0.54-0.15,0.83H172.96L172.96,86.98z M180.61,90.86
		c0,0.1-0.01,0.19-0.02,0.26c-0.02,0.07-0.03,0.13-0.05,0.17c-0.02,0.04-0.05,0.08-0.09,0.09c-0.03,0.02-0.08,0.03-0.12,0.03h-4.36
		c-0.11,0-0.2-0.04-0.27-0.11c-0.07-0.07-0.1-0.2-0.1-0.37v-0.27c0-0.08,0.01-0.14,0.02-0.2c0.01-0.06,0.02-0.12,0.05-0.17
		c0.02-0.06,0.05-0.12,0.09-0.19c0.04-0.06,0.08-0.14,0.13-0.22l3.13-4.87h-3.03c-0.08,0-0.15-0.04-0.2-0.13
		c-0.05-0.09-0.08-0.23-0.08-0.42c0-0.09,0.01-0.18,0.02-0.25c0.01-0.07,0.03-0.13,0.05-0.17c0.02-0.04,0.05-0.08,0.09-0.09
		c0.03-0.02,0.08-0.03,0.12-0.03h4.07c0.06,0,0.11,0.01,0.15,0.02c0.05,0.02,0.08,0.04,0.12,0.08c0.03,0.04,0.06,0.08,0.08,0.14
		c0.02,0.06,0.03,0.13,0.03,0.22v0.25c0,0.08-0.01,0.14-0.02,0.21c-0.01,0.06-0.03,0.12-0.05,0.18c-0.02,0.06-0.05,0.13-0.09,0.19
		c-0.04,0.07-0.08,0.15-0.13,0.23L177,90.32h3.32c0.04,0,0.08,0.01,0.12,0.03c0.03,0.02,0.06,0.05,0.09,0.09
		c0.02,0.04,0.04,0.1,0.06,0.17C180.6,90.68,180.61,90.76,180.61,90.86L180.61,90.86z M187.53,91.23c0,0.06-0.02,0.11-0.06,0.14
		c-0.04,0.03-0.1,0.06-0.17,0.07c-0.08,0.02-0.18,0.02-0.32,0.02c-0.14,0-0.25-0.01-0.33-0.02c-0.08-0.02-0.14-0.04-0.18-0.07
		c-0.04-0.03-0.05-0.08-0.05-0.14v-0.71c-0.31,0.33-0.66,0.59-1.04,0.77c-0.38,0.18-0.78,0.28-1.21,0.28
		c-0.37,0-0.71-0.05-1.01-0.15c-0.3-0.1-0.56-0.24-0.77-0.42c-0.21-0.19-0.38-0.41-0.5-0.68c-0.12-0.27-0.18-0.57-0.18-0.91
		c0-0.4,0.08-0.75,0.24-1.04c0.16-0.29,0.4-0.54,0.7-0.73c0.3-0.2,0.68-0.34,1.12-0.44c0.44-0.1,0.94-0.14,1.49-0.14h0.98V86.5
		c0-0.27-0.03-0.52-0.09-0.73c-0.06-0.21-0.15-0.38-0.28-0.52c-0.13-0.14-0.3-0.25-0.5-0.32c-0.2-0.07-0.46-0.1-0.76-0.1
		c-0.32,0-0.61,0.04-0.86,0.11c-0.26,0.08-0.48,0.16-0.67,0.25c-0.19,0.09-0.35,0.17-0.48,0.25c-0.13,0.08-0.22,0.11-0.29,0.11
		c-0.04,0-0.08-0.01-0.11-0.03c-0.03-0.02-0.06-0.05-0.08-0.1c-0.02-0.04-0.04-0.09-0.05-0.16c-0.01-0.06-0.02-0.14-0.02-0.22
		c0-0.13,0.01-0.24,0.03-0.31c0.02-0.08,0.06-0.15,0.13-0.22c0.07-0.07,0.19-0.15,0.37-0.24c0.17-0.09,0.37-0.17,0.6-0.25
		c0.23-0.08,0.47-0.14,0.74-0.19c0.27-0.05,0.54-0.08,0.81-0.08c0.51,0,0.94,0.06,1.3,0.17c0.36,0.12,0.65,0.28,0.87,0.51
		c0.22,0.22,0.38,0.5,0.48,0.83c0.1,0.33,0.15,0.72,0.15,1.16V91.23L187.53,91.23z M186.24,87.99h-1.11c-0.36,0-0.67,0.03-0.93,0.09
		c-0.26,0.06-0.48,0.15-0.65,0.27c-0.17,0.12-0.3,0.26-0.38,0.42c-0.08,0.17-0.12,0.36-0.12,0.57c0,0.37,0.12,0.66,0.35,0.88
		c0.23,0.22,0.56,0.33,0.98,0.33c0.34,0,0.66-0.09,0.95-0.26c0.29-0.17,0.6-0.44,0.92-0.8V87.99L186.24,87.99z M199.62,87.36
		c0,0.2-0.05,0.35-0.15,0.44c-0.1,0.09-0.22,0.13-0.35,0.13h-4.65c0,0.4,0.04,0.75,0.12,1.06c0.08,0.31,0.21,0.58,0.4,0.81
		c0.18,0.23,0.42,0.4,0.72,0.52c0.3,0.12,0.65,0.18,1.08,0.18c0.34,0,0.63-0.03,0.9-0.08c0.26-0.05,0.49-0.12,0.68-0.19
		c0.19-0.07,0.35-0.13,0.47-0.18c0.12-0.06,0.21-0.08,0.28-0.08c0.03,0,0.07,0.01,0.1,0.03c0.03,0.02,0.05,0.05,0.07,0.08
		c0.02,0.04,0.03,0.09,0.04,0.15c0.01,0.06,0.01,0.15,0.01,0.24c0,0.07,0,0.13-0.01,0.18c-0.01,0.05-0.01,0.09-0.02,0.13
		c-0.01,0.04-0.02,0.08-0.04,0.11c-0.02,0.03-0.04,0.06-0.07,0.09c-0.03,0.03-0.12,0.08-0.26,0.14c-0.14,0.06-0.33,0.13-0.55,0.19
		c-0.23,0.06-0.49,0.12-0.78,0.17c-0.3,0.05-0.61,0.08-0.95,0.08c-0.58,0-1.09-0.08-1.53-0.24c-0.44-0.16-0.81-0.41-1.11-0.73
		c-0.3-0.32-0.52-0.72-0.68-1.2c-0.15-0.48-0.23-1.05-0.23-1.69c0-0.61,0.08-1.16,0.24-1.64c0.16-0.48,0.38-0.9,0.68-1.24
		c0.3-0.34,0.65-0.6,1.08-0.78c0.42-0.18,0.89-0.27,1.41-0.27c0.56,0,1.03,0.09,1.42,0.27c0.39,0.18,0.71,0.42,0.97,0.72
		c0.25,0.3,0.44,0.66,0.55,1.06c0.12,0.41,0.18,0.84,0.18,1.3V87.36L199.62,87.36z M198.31,86.98c0.02-0.68-0.13-1.22-0.45-1.61
		c-0.32-0.39-0.79-0.58-1.41-0.58c-0.32,0-0.6,0.06-0.84,0.18c-0.24,0.12-0.44,0.28-0.6,0.48c-0.16,0.2-0.29,0.43-0.38,0.7
		c-0.09,0.27-0.14,0.54-0.15,0.83H198.31L198.31,86.98z M211.32,91.22c0,0.04-0.01,0.08-0.03,0.11c-0.02,0.03-0.05,0.06-0.09,0.08
		c-0.05,0.02-0.1,0.03-0.18,0.04c-0.08,0.01-0.16,0.02-0.27,0.02c-0.11,0-0.2-0.01-0.27-0.02c-0.08-0.01-0.13-0.03-0.18-0.04
		c-0.05-0.02-0.08-0.05-0.1-0.08c-0.02-0.03-0.03-0.07-0.03-0.11v-0.94c-0.37,0.41-0.76,0.72-1.16,0.95
		c-0.4,0.23-0.84,0.34-1.32,0.34c-0.52,0-0.97-0.1-1.33-0.3c-0.37-0.2-0.66-0.48-0.89-0.82c-0.23-0.34-0.4-0.75-0.5-1.21
		c-0.1-0.47-0.16-0.95-0.16-1.47c0-0.61,0.07-1.16,0.2-1.65c0.13-0.49,0.33-0.91,0.58-1.26c0.26-0.35,0.58-0.61,0.96-0.8
		c0.38-0.19,0.82-0.28,1.32-0.28c0.41,0,0.79,0.09,1.14,0.27c0.34,0.18,0.69,0.45,1.02,0.8v-4.12c0-0.04,0.01-0.07,0.03-0.1
		c0.02-0.03,0.05-0.06,0.11-0.08c0.05-0.02,0.12-0.04,0.2-0.05c0.08-0.01,0.19-0.02,0.31-0.02c0.13,0,0.24,0.01,0.32,0.02
		c0.08,0.01,0.15,0.03,0.2,0.05c0.05,0.02,0.08,0.04,0.11,0.08c0.02,0.03,0.03,0.07,0.03,0.1V91.22L211.32,91.22z M210.01,86.23
		c-0.35-0.44-0.69-0.77-1.02-0.99c-0.33-0.23-0.67-0.34-1.03-0.34c-0.33,0-0.61,0.08-0.84,0.24c-0.23,0.16-0.42,0.37-0.56,0.62
		c-0.15,0.26-0.25,0.55-0.31,0.87c-0.07,0.33-0.1,0.66-0.1,0.99c0,0.36,0.03,0.71,0.08,1.05c0.05,0.34,0.15,0.64,0.29,0.91
		c0.14,0.27,0.32,0.48,0.54,0.64c0.23,0.16,0.51,0.24,0.85,0.24c0.17,0,0.34-0.02,0.5-0.07c0.16-0.05,0.32-0.13,0.49-0.24
		c0.17-0.11,0.34-0.25,0.53-0.43c0.18-0.18,0.38-0.39,0.58-0.65V86.23L210.01,86.23z M219.06,91.23c0,0.06-0.02,0.11-0.06,0.14
		c-0.04,0.03-0.1,0.06-0.17,0.07c-0.08,0.02-0.18,0.02-0.32,0.02c-0.14,0-0.25-0.01-0.33-0.02c-0.08-0.02-0.14-0.04-0.18-0.07
		c-0.04-0.03-0.05-0.08-0.05-0.14v-0.71c-0.31,0.33-0.66,0.59-1.04,0.77c-0.38,0.18-0.78,0.28-1.21,0.28
		c-0.37,0-0.71-0.05-1.01-0.15c-0.3-0.1-0.56-0.24-0.77-0.42c-0.21-0.19-0.38-0.41-0.5-0.68c-0.12-0.27-0.17-0.57-0.17-0.91
		c0-0.4,0.08-0.75,0.24-1.04c0.16-0.29,0.4-0.54,0.7-0.73c0.3-0.2,0.68-0.34,1.12-0.44c0.44-0.1,0.94-0.14,1.49-0.14h0.98V86.5
		c0-0.27-0.03-0.52-0.09-0.73c-0.06-0.21-0.15-0.38-0.28-0.52c-0.13-0.14-0.3-0.25-0.5-0.32c-0.2-0.07-0.46-0.1-0.76-0.1
		c-0.32,0-0.61,0.04-0.86,0.11c-0.26,0.08-0.48,0.16-0.67,0.25c-0.19,0.09-0.35,0.17-0.48,0.25c-0.13,0.08-0.22,0.11-0.29,0.11
		c-0.04,0-0.08-0.01-0.11-0.03c-0.03-0.02-0.06-0.05-0.08-0.1c-0.02-0.04-0.04-0.09-0.05-0.16c-0.01-0.06-0.02-0.14-0.02-0.22
		c0-0.13,0.01-0.24,0.03-0.31c0.02-0.08,0.06-0.15,0.13-0.22c0.07-0.07,0.19-0.15,0.37-0.24c0.17-0.09,0.37-0.17,0.6-0.25
		c0.23-0.08,0.47-0.14,0.74-0.19c0.27-0.05,0.54-0.08,0.81-0.08c0.51,0,0.94,0.06,1.3,0.17c0.36,0.12,0.65,0.28,0.87,0.51
		c0.22,0.22,0.38,0.5,0.48,0.83c0.1,0.33,0.15,0.72,0.15,1.16V91.23L219.06,91.23z M217.77,87.99h-1.11c-0.36,0-0.67,0.03-0.93,0.09
		c-0.26,0.06-0.48,0.15-0.65,0.27c-0.17,0.12-0.3,0.26-0.38,0.42c-0.08,0.17-0.12,0.36-0.12,0.57c0,0.37,0.12,0.66,0.35,0.88
		c0.23,0.22,0.56,0.33,0.98,0.33c0.34,0,0.66-0.09,0.95-0.26c0.29-0.17,0.6-0.44,0.92-0.8V87.99L217.77,87.99z M213.22,74.08
		c0,0.04-0.01,0.08-0.03,0.1c-0.02,0.03-0.05,0.05-0.1,0.08c-0.05,0.02-0.11,0.04-0.2,0.05c-0.09,0.01-0.19,0.02-0.31,0.02
		c-0.13,0-0.24-0.01-0.33-0.02c-0.08-0.01-0.15-0.03-0.2-0.05c-0.05-0.02-0.08-0.05-0.1-0.08c-0.02-0.03-0.03-0.06-0.03-0.1v-4.15
		c0-0.41-0.03-0.73-0.09-0.98c-0.06-0.25-0.15-0.46-0.27-0.64c-0.12-0.18-0.28-0.31-0.47-0.41c-0.19-0.09-0.41-0.14-0.66-0.14
		c-0.33,0-0.65,0.12-0.98,0.35c-0.33,0.23-0.67,0.57-1.03,1.02v4.96c0,0.04-0.01,0.08-0.03,0.1c-0.02,0.03-0.06,0.05-0.1,0.08
		c-0.05,0.02-0.11,0.04-0.2,0.05c-0.09,0.01-0.19,0.02-0.33,0.02c-0.12,0-0.23-0.01-0.31-0.02c-0.08-0.01-0.15-0.03-0.2-0.05
		c-0.05-0.02-0.09-0.05-0.1-0.08c-0.02-0.03-0.03-0.06-0.03-0.1v-7.09c0-0.04,0.01-0.08,0.02-0.11c0.02-0.03,0.05-0.05,0.09-0.08
		c0.05-0.02,0.11-0.04,0.18-0.05c0.07-0.01,0.17-0.01,0.29-0.01c0.12,0,0.21,0.01,0.29,0.01c0.08,0.01,0.13,0.02,0.18,0.05
		c0.04,0.02,0.07,0.05,0.09,0.08c0.02,0.03,0.03,0.06,0.03,0.11v0.94c0.4-0.45,0.8-0.77,1.19-0.98c0.4-0.21,0.8-0.31,1.2-0.31
		c0.47,0,0.87,0.08,1.19,0.24c0.32,0.16,0.59,0.37,0.79,0.64c0.2,0.27,0.34,0.58,0.43,0.94c0.09,0.36,0.13,0.79,0.13,1.3V74.08
		L213.22,74.08z M220.04,72.15c0,0.36-0.07,0.69-0.2,0.97c-0.13,0.28-0.33,0.52-0.57,0.72c-0.25,0.19-0.54,0.34-0.88,0.44
		c-0.34,0.1-0.72,0.15-1.13,0.15c-0.25,0-0.49-0.02-0.72-0.06c-0.23-0.04-0.43-0.09-0.61-0.15c-0.18-0.06-0.34-0.12-0.46-0.19
		c-0.12-0.07-0.22-0.13-0.27-0.18c-0.06-0.05-0.1-0.13-0.13-0.22c-0.03-0.09-0.04-0.22-0.04-0.39c0-0.1,0.01-0.18,0.02-0.25
		c0.01-0.07,0.02-0.12,0.04-0.16c0.02-0.04,0.04-0.07,0.07-0.09c0.03-0.02,0.06-0.03,0.1-0.03c0.06,0,0.15,0.03,0.26,0.11
		c0.11,0.07,0.25,0.15,0.42,0.23c0.16,0.08,0.36,0.16,0.59,0.23c0.23,0.07,0.49,0.11,0.78,0.11c0.22,0,0.42-0.02,0.6-0.07
		c0.18-0.05,0.33-0.12,0.47-0.21c0.13-0.09,0.23-0.21,0.3-0.35c0.07-0.14,0.11-0.31,0.11-0.51c0-0.2-0.05-0.37-0.15-0.5
		c-0.1-0.14-0.24-0.26-0.41-0.36c-0.17-0.11-0.36-0.2-0.57-0.28c-0.21-0.08-0.43-0.17-0.65-0.26c-0.22-0.09-0.44-0.19-0.65-0.3
		c-0.21-0.11-0.4-0.25-0.57-0.41c-0.17-0.16-0.3-0.36-0.41-0.58c-0.1-0.23-0.15-0.49-0.15-0.81c0-0.28,0.05-0.54,0.16-0.8
		c0.11-0.26,0.27-0.48,0.48-0.67c0.21-0.19,0.48-0.34,0.81-0.46c0.32-0.12,0.7-0.17,1.13-0.17c0.19,0,0.38,0.02,0.57,0.05
		c0.19,0.03,0.36,0.07,0.51,0.12c0.15,0.05,0.28,0.1,0.39,0.15c0.11,0.05,0.19,0.1,0.24,0.14c0.05,0.04,0.09,0.08,0.11,0.11
		c0.02,0.03,0.03,0.07,0.04,0.11c0.01,0.04,0.01,0.09,0.02,0.15c0.01,0.06,0.01,0.13,0.01,0.21c0,0.09-0.01,0.17-0.01,0.23
		c-0.01,0.07-0.02,0.12-0.04,0.16c-0.02,0.04-0.04,0.07-0.07,0.09c-0.03,0.02-0.06,0.03-0.09,0.03c-0.05,0-0.12-0.03-0.21-0.09
		c-0.09-0.06-0.2-0.12-0.34-0.19c-0.14-0.06-0.31-0.13-0.5-0.19c-0.19-0.06-0.41-0.09-0.66-0.09c-0.22,0-0.41,0.02-0.58,0.08
		c-0.17,0.05-0.31,0.12-0.41,0.21c-0.11,0.09-0.19,0.2-0.24,0.33c-0.05,0.13-0.08,0.26-0.08,0.41c0,0.2,0.05,0.38,0.16,0.52
		c0.1,0.14,0.24,0.26,0.41,0.37c0.17,0.1,0.36,0.2,0.57,0.29c0.22,0.08,0.44,0.17,0.66,0.26c0.22,0.09,0.44,0.19,0.66,0.3
		c0.22,0.11,0.41,0.24,0.58,0.4c0.17,0.16,0.3,0.35,0.4,0.57C219.98,71.58,220.04,71.85,220.04,72.15L220.04,72.15z M227.95,70.23
		c0,0.2-0.05,0.35-0.15,0.44c-0.1,0.09-0.22,0.13-0.35,0.13h-4.65c0,0.4,0.04,0.75,0.12,1.07c0.08,0.31,0.21,0.58,0.4,0.81
		c0.18,0.23,0.42,0.4,0.72,0.52c0.3,0.12,0.65,0.18,1.08,0.18c0.34,0,0.63-0.03,0.9-0.08c0.26-0.05,0.49-0.12,0.68-0.19
		c0.19-0.07,0.35-0.13,0.47-0.18c0.12-0.06,0.21-0.08,0.28-0.08c0.03,0,0.07,0.01,0.1,0.03c0.03,0.02,0.05,0.05,0.07,0.08
		c0.02,0.04,0.03,0.09,0.04,0.15c0.01,0.06,0.01,0.15,0.01,0.24c0,0.07,0,0.13-0.01,0.18c-0.01,0.05-0.01,0.09-0.02,0.13
		c-0.01,0.04-0.02,0.08-0.04,0.11c-0.02,0.03-0.04,0.06-0.07,0.09c-0.03,0.03-0.12,0.08-0.26,0.14c-0.14,0.06-0.33,0.13-0.55,0.19
		c-0.23,0.06-0.49,0.12-0.78,0.17c-0.3,0.05-0.61,0.08-0.95,0.08c-0.58,0-1.09-0.08-1.53-0.24c-0.44-0.16-0.81-0.41-1.11-0.73
		c-0.3-0.32-0.52-0.72-0.68-1.2c-0.15-0.48-0.23-1.05-0.23-1.69c0-0.61,0.08-1.16,0.24-1.64c0.16-0.48,0.38-0.9,0.68-1.24
		c0.3-0.34,0.65-0.6,1.08-0.78c0.42-0.18,0.89-0.27,1.41-0.27c0.56,0,1.03,0.09,1.42,0.27c0.39,0.18,0.71,0.42,0.97,0.72
		c0.25,0.3,0.44,0.66,0.55,1.06c0.12,0.41,0.18,0.84,0.18,1.3V70.23L227.95,70.23z M226.64,69.84c0.02-0.68-0.13-1.22-0.45-1.61
		c-0.32-0.39-0.79-0.58-1.41-0.58c-0.32,0-0.6,0.06-0.84,0.18c-0.24,0.12-0.44,0.28-0.61,0.48c-0.16,0.2-0.29,0.43-0.38,0.7
		c-0.09,0.27-0.14,0.54-0.15,0.83H226.64L226.64,69.84z M234.07,67.45c0,0.12,0,0.21-0.01,0.29c-0.01,0.08-0.02,0.14-0.03,0.19
		c-0.02,0.05-0.04,0.08-0.06,0.1c-0.02,0.02-0.06,0.04-0.1,0.04c-0.04,0-0.09-0.01-0.15-0.04c-0.06-0.02-0.13-0.05-0.2-0.07
		c-0.08-0.02-0.16-0.05-0.26-0.07c-0.1-0.02-0.2-0.03-0.31-0.03c-0.13,0-0.26,0.03-0.38,0.08c-0.13,0.05-0.26,0.14-0.4,0.26
		c-0.14,0.12-0.28,0.28-0.44,0.48c-0.15,0.2-0.32,0.44-0.5,0.73v4.67c0,0.04-0.01,0.08-0.03,0.1c-0.02,0.03-0.06,0.05-0.1,0.08
		c-0.05,0.02-0.11,0.04-0.2,0.05c-0.09,0.01-0.19,0.02-0.33,0.02c-0.12,0-0.23-0.01-0.31-0.02c-0.08-0.01-0.15-0.03-0.2-0.05
		c-0.05-0.02-0.09-0.05-0.1-0.08c-0.02-0.03-0.03-0.06-0.03-0.1v-7.09c0-0.04,0.01-0.08,0.02-0.11c0.02-0.03,0.05-0.05,0.09-0.08
		c0.05-0.02,0.11-0.04,0.18-0.05c0.07-0.01,0.17-0.01,0.29-0.01c0.12,0,0.21,0.01,0.29,0.01c0.08,0.01,0.13,0.02,0.18,0.05
		c0.04,0.02,0.07,0.05,0.09,0.08c0.02,0.03,0.03,0.06,0.03,0.11v1.03c0.19-0.29,0.38-0.52,0.55-0.69c0.17-0.18,0.33-0.32,0.49-0.42
		c0.15-0.1,0.3-0.17,0.45-0.21c0.15-0.04,0.3-0.06,0.45-0.06c0.07,0,0.15,0.01,0.23,0.01c0.09,0.01,0.18,0.02,0.27,0.04
		c0.09,0.02,0.18,0.04,0.26,0.07c0.08,0.03,0.13,0.05,0.16,0.08c0.03,0.03,0.05,0.05,0.06,0.08c0.01,0.02,0.02,0.05,0.03,0.09
		c0.01,0.04,0.01,0.09,0.02,0.16C234.07,67.24,234.07,67.33,234.07,67.45L234.07,67.45z M241.52,66.97c0,0.02,0,0.04,0,0.07
		c0,0.02-0.01,0.05-0.01,0.08c0,0.03-0.01,0.05-0.02,0.09c-0.01,0.03-0.02,0.07-0.03,0.1l-2.42,6.74c-0.02,0.06-0.05,0.1-0.08,0.14
		c-0.04,0.04-0.09,0.06-0.15,0.09c-0.07,0.02-0.16,0.03-0.26,0.04c-0.1,0.01-0.24,0.01-0.4,0.01c-0.16,0-0.29-0.01-0.39-0.02
		c-0.1-0.01-0.19-0.03-0.26-0.05c-0.07-0.02-0.12-0.05-0.15-0.09c-0.04-0.04-0.07-0.08-0.09-0.13l-2.41-6.74
		c-0.02-0.06-0.04-0.12-0.05-0.16c-0.01-0.05-0.02-0.08-0.02-0.11c0-0.02,0-0.04,0-0.06c0-0.04,0.01-0.08,0.03-0.11
		c0.02-0.03,0.06-0.06,0.11-0.08c0.05-0.02,0.12-0.03,0.2-0.04c0.08-0.01,0.18-0.01,0.3-0.01c0.15,0,0.27,0.01,0.37,0.01
		c0.09,0.01,0.16,0.02,0.21,0.04c0.05,0.02,0.09,0.05,0.11,0.08c0.02,0.03,0.05,0.07,0.07,0.12l2,5.85l0.03,0.09l0.02-0.09
		l1.98-5.85c0.01-0.05,0.03-0.09,0.06-0.12c0.02-0.03,0.06-0.06,0.11-0.08c0.05-0.02,0.12-0.03,0.2-0.04
		c0.09-0.01,0.2-0.01,0.34-0.01c0.12,0,0.22,0,0.3,0.01c0.08,0.01,0.14,0.02,0.19,0.04c0.05,0.02,0.08,0.05,0.09,0.08
		C241.51,66.89,241.52,66.93,241.52,66.97L241.52,66.97z M248.1,74.09c0,0.06-0.02,0.11-0.06,0.14c-0.04,0.03-0.1,0.06-0.17,0.07
		c-0.08,0.02-0.18,0.02-0.32,0.02c-0.14,0-0.25-0.01-0.33-0.02c-0.08-0.02-0.14-0.04-0.18-0.07c-0.04-0.03-0.05-0.08-0.05-0.14
		v-0.71c-0.31,0.33-0.66,0.59-1.04,0.77c-0.38,0.18-0.78,0.28-1.21,0.28c-0.37,0-0.71-0.05-1.01-0.15c-0.3-0.1-0.56-0.24-0.77-0.42
		c-0.21-0.19-0.38-0.41-0.5-0.68c-0.12-0.27-0.17-0.57-0.17-0.91c0-0.4,0.08-0.74,0.24-1.04c0.16-0.29,0.4-0.54,0.7-0.73
		c0.3-0.2,0.68-0.34,1.12-0.44c0.44-0.1,0.94-0.14,1.49-0.14h0.98v-0.55c0-0.27-0.03-0.52-0.09-0.73c-0.06-0.21-0.15-0.38-0.28-0.52
		c-0.13-0.14-0.3-0.24-0.5-0.32c-0.2-0.07-0.46-0.1-0.76-0.1c-0.32,0-0.61,0.04-0.86,0.11c-0.26,0.08-0.48,0.16-0.67,0.25
		c-0.19,0.09-0.35,0.17-0.48,0.25c-0.13,0.08-0.22,0.11-0.29,0.11c-0.04,0-0.08-0.01-0.11-0.03c-0.03-0.02-0.06-0.05-0.08-0.1
		c-0.02-0.04-0.04-0.09-0.05-0.16c-0.01-0.06-0.02-0.14-0.02-0.22c0-0.13,0.01-0.24,0.03-0.31c0.02-0.08,0.06-0.15,0.13-0.22
		c0.07-0.07,0.19-0.15,0.37-0.24c0.17-0.09,0.37-0.17,0.6-0.25c0.23-0.08,0.47-0.14,0.74-0.19c0.27-0.05,0.54-0.08,0.81-0.08
		c0.51,0,0.94,0.06,1.3,0.17c0.36,0.12,0.65,0.28,0.87,0.51c0.22,0.22,0.38,0.5,0.48,0.83s0.15,0.72,0.15,1.16V74.09L248.1,74.09z
		 M246.8,70.85h-1.11c-0.36,0-0.67,0.03-0.93,0.09c-0.26,0.06-0.48,0.15-0.65,0.27c-0.17,0.12-0.3,0.26-0.38,0.42
		c-0.08,0.17-0.12,0.36-0.12,0.57c0,0.37,0.12,0.66,0.35,0.88c0.23,0.22,0.56,0.33,0.98,0.33c0.34,0,0.66-0.09,0.95-0.26
		c0.29-0.17,0.6-0.44,0.92-0.8V70.85L246.8,70.85z M255.58,73c0,0.09,0,0.17-0.01,0.23c-0.01,0.06-0.02,0.12-0.03,0.16
		c-0.01,0.05-0.03,0.09-0.05,0.12c-0.02,0.03-0.06,0.09-0.13,0.15c-0.06,0.06-0.18,0.15-0.35,0.25c-0.16,0.1-0.37,0.2-0.62,0.29
		c-0.25,0.09-0.52,0.16-0.83,0.19l0.2,0.46c0.11,0.24,0.19,0.43,0.24,0.59c0.05,0.16,0.08,0.3,0.08,0.44c0,0.2-0.04,0.38-0.11,0.54
		c-0.07,0.16-0.18,0.29-0.31,0.4c-0.14,0.11-0.3,0.19-0.49,0.25c-0.19,0.06-0.4,0.09-0.64,0.09c-0.18,0-0.35-0.01-0.52-0.03
		c-0.17-0.02-0.31-0.05-0.42-0.08c-0.12-0.02-0.2-0.05-0.24-0.07c-0.05-0.02-0.08-0.05-0.09-0.08c-0.02-0.03-0.03-0.07-0.04-0.12
		c-0.01-0.05-0.01-0.11-0.01-0.19c0-0.16,0.02-0.27,0.05-0.33c0.03-0.06,0.09-0.08,0.17-0.08h0.98c0.17,0,0.3-0.03,0.4-0.1
		c0.09-0.07,0.14-0.18,0.14-0.32c0-0.07-0.02-0.15-0.05-0.26c-0.03-0.1-0.08-0.21-0.13-0.33l-0.37-0.82
		c-0.54-0.1-0.98-0.31-1.34-0.63c-0.36-0.33-0.62-0.74-0.8-1.27c-0.18-0.52-0.27-1.13-0.27-1.83c0-0.7,0.08-1.3,0.26-1.8
		c0.17-0.5,0.4-0.91,0.7-1.23c0.3-0.32,0.65-0.56,1.05-0.71c0.4-0.16,0.84-0.23,1.3-0.23c0.23,0,0.45,0.02,0.66,0.06
		c0.21,0.04,0.41,0.1,0.59,0.16c0.18,0.07,0.34,0.15,0.48,0.24c0.14,0.09,0.24,0.16,0.3,0.23c0.06,0.06,0.11,0.11,0.13,0.15
		c0.02,0.04,0.05,0.08,0.06,0.13c0.02,0.05,0.03,0.1,0.03,0.17c0.01,0.06,0.01,0.14,0.01,0.24c0,0.2-0.02,0.35-0.07,0.43
		c-0.05,0.08-0.11,0.12-0.17,0.12c-0.08,0-0.17-0.04-0.27-0.13c-0.1-0.09-0.23-0.18-0.39-0.29c-0.16-0.1-0.35-0.2-0.57-0.29
		c-0.22-0.09-0.49-0.13-0.79-0.13c-0.62,0-1.1,0.24-1.44,0.72c-0.33,0.48-0.5,1.18-0.5,2.09c0,0.46,0.04,0.86,0.13,1.2
		c0.09,0.34,0.22,0.63,0.38,0.86c0.17,0.23,0.37,0.4,0.62,0.52c0.24,0.11,0.52,0.17,0.84,0.17c0.3,0,0.56-0.05,0.79-0.14
		c0.23-0.09,0.42-0.2,0.59-0.31c0.17-0.11,0.31-0.21,0.42-0.31c0.11-0.09,0.2-0.14,0.26-0.14c0.03,0,0.07,0.01,0.09,0.03
		c0.03,0.02,0.05,0.06,0.07,0.11c0.02,0.05,0.03,0.11,0.04,0.19C255.58,72.81,255.58,72.89,255.58,73L255.58,73z M262.51,74.09
		c0,0.06-0.02,0.11-0.06,0.14c-0.04,0.03-0.1,0.06-0.17,0.07c-0.08,0.02-0.18,0.02-0.32,0.02c-0.14,0-0.25-0.01-0.33-0.02
		c-0.08-0.02-0.14-0.04-0.18-0.07c-0.04-0.03-0.05-0.08-0.05-0.14v-0.71c-0.31,0.33-0.66,0.59-1.04,0.77
		c-0.38,0.18-0.78,0.28-1.21,0.28c-0.37,0-0.71-0.05-1.01-0.15c-0.3-0.1-0.56-0.24-0.77-0.42c-0.21-0.19-0.38-0.41-0.5-0.68
		c-0.12-0.27-0.18-0.57-0.18-0.91c0-0.4,0.08-0.74,0.24-1.04c0.16-0.29,0.4-0.54,0.7-0.73c0.3-0.2,0.68-0.34,1.12-0.44
		c0.44-0.1,0.94-0.14,1.49-0.14h0.98v-0.55c0-0.27-0.03-0.52-0.09-0.73c-0.06-0.21-0.15-0.38-0.28-0.52
		c-0.13-0.14-0.3-0.24-0.5-0.32c-0.2-0.07-0.46-0.1-0.76-0.1c-0.32,0-0.61,0.04-0.86,0.11c-0.26,0.08-0.48,0.16-0.67,0.25
		c-0.19,0.09-0.35,0.17-0.48,0.25c-0.13,0.08-0.22,0.11-0.29,0.11c-0.04,0-0.08-0.01-0.11-0.03c-0.03-0.02-0.06-0.05-0.08-0.1
		c-0.02-0.04-0.04-0.09-0.05-0.16c-0.01-0.06-0.02-0.14-0.02-0.22c0-0.13,0.01-0.24,0.03-0.31c0.02-0.08,0.06-0.15,0.13-0.22
		c0.07-0.07,0.19-0.15,0.37-0.24c0.17-0.09,0.37-0.17,0.6-0.25c0.23-0.08,0.47-0.14,0.74-0.19c0.27-0.05,0.54-0.08,0.81-0.08
		c0.51,0,0.94,0.06,1.3,0.17c0.36,0.12,0.65,0.28,0.87,0.51c0.22,0.22,0.38,0.5,0.48,0.83c0.1,0.33,0.15,0.72,0.15,1.16V74.09
		L262.51,74.09z M261.22,70.85h-1.11c-0.36,0-0.67,0.03-0.93,0.09c-0.26,0.06-0.48,0.15-0.65,0.27c-0.17,0.12-0.3,0.26-0.38,0.42
		c-0.08,0.17-0.12,0.36-0.12,0.57c0,0.37,0.12,0.66,0.35,0.88c0.23,0.22,0.56,0.33,0.98,0.33c0.34,0,0.66-0.09,0.95-0.26
		c0.29-0.17,0.6-0.44,0.92-0.8V70.85L261.22,70.85z M262.46,63.92c0,0.56-0.14,0.98-0.41,1.28c-0.27,0.29-0.64,0.44-1.11,0.44
		c-0.2,0-0.37-0.02-0.52-0.08c-0.15-0.05-0.29-0.11-0.42-0.19c-0.13-0.08-0.24-0.16-0.35-0.25c-0.1-0.09-0.21-0.17-0.31-0.25
		c-0.1-0.08-0.2-0.14-0.3-0.19c-0.1-0.05-0.21-0.08-0.32-0.08c-0.21,0-0.36,0.08-0.44,0.23c-0.09,0.15-0.13,0.36-0.13,0.61
		c0,0.04-0.01,0.07-0.02,0.1c-0.01,0.03-0.03,0.05-0.07,0.06c-0.04,0.02-0.08,0.03-0.15,0.03c-0.06,0.01-0.15,0.01-0.25,0.01
		c-0.08,0-0.16,0-0.21-0.01c-0.06-0.01-0.1-0.02-0.14-0.05c-0.04-0.02-0.06-0.06-0.08-0.1c-0.02-0.05-0.02-0.1-0.02-0.17
		c0-0.52,0.13-0.94,0.39-1.25c0.26-0.31,0.64-0.47,1.13-0.47c0.29,0,0.53,0.05,0.73,0.16c0.2,0.11,0.39,0.23,0.55,0.36
		c0.17,0.13,0.32,0.25,0.47,0.36c0.15,0.11,0.3,0.17,0.47,0.17c0.19,0,0.33-0.07,0.43-0.21c0.1-0.14,0.15-0.34,0.15-0.62
		c0-0.08,0.03-0.14,0.08-0.17c0.06-0.03,0.17-0.04,0.36-0.04c0.2,0,0.33,0.02,0.39,0.06C262.43,63.7,262.46,63.79,262.46,63.92
		L262.46,63.92z M271.49,70.46c0,0.58-0.08,1.11-0.23,1.6c-0.15,0.49-0.38,0.91-0.68,1.26c-0.3,0.35-0.68,0.63-1.14,0.82
		c-0.45,0.2-0.98,0.3-1.58,0.3c-0.58,0-1.09-0.09-1.52-0.26c-0.43-0.17-0.8-0.43-1.08-0.76c-0.29-0.33-0.5-0.73-0.65-1.21
		c-0.14-0.47-0.21-1.01-0.21-1.61c0-0.58,0.08-1.11,0.22-1.59c0.15-0.49,0.38-0.91,0.68-1.26c0.3-0.35,0.68-0.62,1.13-0.82
		c0.45-0.2,0.98-0.29,1.58-0.29c0.58,0,1.09,0.09,1.52,0.26c0.43,0.17,0.8,0.42,1.08,0.76c0.29,0.33,0.51,0.73,0.65,1.2
		C271.42,69.33,271.49,69.86,271.49,70.46L271.49,70.46z M270.13,70.54c0-0.38-0.04-0.74-0.11-1.09c-0.07-0.34-0.19-0.64-0.35-0.9
		c-0.16-0.26-0.38-0.46-0.66-0.61c-0.28-0.15-0.63-0.23-1.04-0.23c-0.38,0-0.71,0.07-0.99,0.21c-0.27,0.13-0.5,0.33-0.68,0.58
		c-0.18,0.25-0.31,0.55-0.4,0.89c-0.09,0.34-0.13,0.71-0.13,1.12c0,0.39,0.03,0.75,0.1,1.09c0.07,0.34,0.19,0.64,0.35,0.89
		c0.16,0.26,0.39,0.46,0.66,0.61c0.28,0.15,0.63,0.22,1.04,0.22c0.38,0,0.71-0.07,0.98-0.2c0.28-0.14,0.51-0.33,0.69-0.58
		c0.18-0.24,0.31-0.54,0.4-0.88C270.08,71.33,270.13,70.95,270.13,70.54L270.13,70.54z M117.15,91.22c0,0.04-0.01,0.08-0.03,0.11
		c-0.02,0.03-0.05,0.06-0.09,0.08c-0.05,0.02-0.1,0.03-0.18,0.04c-0.08,0.01-0.16,0.02-0.27,0.02c-0.11,0-0.2-0.01-0.27-0.02
		c-0.08-0.01-0.13-0.03-0.18-0.04c-0.05-0.02-0.08-0.05-0.1-0.08c-0.02-0.03-0.03-0.07-0.03-0.11v-0.94
		c-0.37,0.41-0.76,0.72-1.16,0.95c-0.4,0.23-0.84,0.34-1.32,0.34c-0.52,0-0.97-0.1-1.33-0.3c-0.37-0.2-0.66-0.48-0.89-0.82
		c-0.23-0.34-0.4-0.75-0.5-1.21c-0.1-0.47-0.16-0.95-0.16-1.47c0-0.61,0.07-1.16,0.2-1.65c0.13-0.49,0.33-0.91,0.58-1.26
		c0.26-0.35,0.58-0.61,0.96-0.8c0.38-0.19,0.82-0.28,1.32-0.28c0.41,0,0.79,0.09,1.14,0.27c0.34,0.18,0.69,0.45,1.02,0.8v-4.12
		c0-0.04,0.01-0.07,0.03-0.1c0.02-0.03,0.05-0.06,0.11-0.08c0.05-0.02,0.12-0.04,0.2-0.05c0.08-0.01,0.19-0.02,0.31-0.02
		c0.13,0,0.24,0.01,0.32,0.02c0.08,0.01,0.15,0.03,0.2,0.05c0.05,0.02,0.08,0.04,0.11,0.08c0.02,0.03,0.03,0.07,0.03,0.1V91.22
		L117.15,91.22z M115.84,86.23c-0.35-0.44-0.69-0.77-1.02-0.99c-0.33-0.23-0.67-0.34-1.03-0.34c-0.33,0-0.61,0.08-0.84,0.24
		c-0.23,0.16-0.42,0.37-0.56,0.62c-0.15,0.26-0.25,0.55-0.32,0.87c-0.07,0.33-0.1,0.66-0.1,0.99c0,0.36,0.03,0.71,0.08,1.05
		c0.05,0.34,0.15,0.64,0.29,0.91c0.14,0.27,0.32,0.48,0.54,0.64c0.23,0.16,0.51,0.24,0.85,0.24c0.17,0,0.34-0.02,0.5-0.07
		c0.16-0.05,0.32-0.13,0.49-0.24c0.17-0.11,0.34-0.25,0.53-0.43c0.18-0.18,0.38-0.39,0.58-0.65V86.23L115.84,86.23z M121.25,74.08
		c0,0.04-0.01,0.08-0.03,0.1c-0.02,0.03-0.05,0.05-0.1,0.08c-0.05,0.02-0.11,0.04-0.2,0.05c-0.09,0.01-0.19,0.02-0.31,0.02
		c-0.13,0-0.24-0.01-0.33-0.02c-0.08-0.01-0.15-0.03-0.2-0.05c-0.05-0.02-0.08-0.05-0.1-0.08c-0.02-0.03-0.03-0.06-0.03-0.1v-4.15
		c0-0.41-0.03-0.73-0.09-0.98c-0.06-0.25-0.15-0.46-0.27-0.64c-0.12-0.18-0.28-0.31-0.47-0.41c-0.19-0.09-0.41-0.14-0.66-0.14
		c-0.33,0-0.65,0.12-0.98,0.35c-0.33,0.23-0.67,0.57-1.02,1.02v4.96c0,0.04-0.01,0.08-0.03,0.1c-0.02,0.03-0.06,0.05-0.1,0.08
		c-0.05,0.02-0.11,0.04-0.2,0.05c-0.09,0.01-0.19,0.02-0.33,0.02c-0.12,0-0.23-0.01-0.31-0.02c-0.08-0.01-0.15-0.03-0.2-0.05
		c-0.05-0.02-0.09-0.05-0.1-0.08c-0.02-0.03-0.03-0.06-0.03-0.1v-7.09c0-0.04,0.01-0.08,0.02-0.11c0.02-0.03,0.05-0.05,0.09-0.08
		c0.05-0.02,0.11-0.04,0.18-0.05c0.07-0.01,0.17-0.01,0.29-0.01c0.12,0,0.21,0.01,0.29,0.01c0.08,0.01,0.13,0.02,0.18,0.05
		c0.04,0.02,0.07,0.05,0.09,0.08c0.02,0.03,0.03,0.06,0.03,0.11v0.94c0.4-0.45,0.8-0.77,1.19-0.98c0.4-0.21,0.8-0.31,1.2-0.31
		c0.47,0,0.87,0.08,1.19,0.24c0.32,0.16,0.59,0.37,0.79,0.64c0.2,0.27,0.34,0.58,0.43,0.94c0.09,0.36,0.13,0.79,0.13,1.3V74.08
		L121.25,74.08z M128.07,72.15c0,0.36-0.07,0.69-0.2,0.97c-0.13,0.28-0.33,0.52-0.57,0.72c-0.24,0.19-0.54,0.34-0.88,0.44
		c-0.34,0.1-0.72,0.15-1.13,0.15c-0.25,0-0.49-0.02-0.72-0.06c-0.23-0.04-0.43-0.09-0.61-0.15c-0.18-0.06-0.34-0.12-0.46-0.19
		c-0.12-0.07-0.22-0.13-0.27-0.18c-0.06-0.05-0.1-0.13-0.13-0.22c-0.03-0.09-0.04-0.22-0.04-0.39c0-0.1,0.01-0.18,0.02-0.25
		c0.01-0.07,0.02-0.12,0.04-0.16c0.02-0.04,0.04-0.07,0.07-0.09c0.03-0.02,0.06-0.03,0.1-0.03c0.06,0,0.15,0.03,0.26,0.11
		c0.11,0.07,0.25,0.15,0.42,0.23c0.16,0.08,0.36,0.16,0.59,0.23c0.23,0.07,0.49,0.11,0.78,0.11c0.22,0,0.42-0.02,0.6-0.07
		c0.18-0.05,0.33-0.12,0.47-0.21c0.13-0.09,0.23-0.21,0.3-0.35c0.07-0.14,0.11-0.31,0.11-0.51c0-0.2-0.05-0.37-0.15-0.5
		c-0.1-0.14-0.24-0.26-0.41-0.36c-0.17-0.11-0.36-0.2-0.57-0.28c-0.21-0.08-0.43-0.17-0.65-0.26c-0.22-0.09-0.44-0.19-0.65-0.3
		c-0.21-0.11-0.4-0.25-0.57-0.41c-0.17-0.16-0.3-0.36-0.41-0.58c-0.1-0.23-0.15-0.49-0.15-0.81c0-0.28,0.05-0.54,0.16-0.8
		c0.11-0.26,0.27-0.48,0.48-0.67c0.21-0.19,0.48-0.34,0.81-0.46c0.32-0.12,0.7-0.17,1.13-0.17c0.19,0,0.38,0.02,0.57,0.05
		c0.19,0.03,0.36,0.07,0.51,0.12c0.15,0.05,0.28,0.1,0.39,0.15c0.11,0.05,0.19,0.1,0.24,0.14c0.05,0.04,0.09,0.08,0.11,0.11
		c0.02,0.03,0.03,0.07,0.04,0.11c0.01,0.04,0.01,0.09,0.02,0.15c0.01,0.06,0.01,0.13,0.01,0.21c0,0.09-0.01,0.17-0.01,0.23
		c-0.01,0.07-0.02,0.12-0.04,0.16c-0.02,0.04-0.04,0.07-0.07,0.09c-0.03,0.02-0.06,0.03-0.09,0.03c-0.05,0-0.12-0.03-0.21-0.09
		c-0.09-0.06-0.2-0.12-0.34-0.19c-0.14-0.06-0.31-0.13-0.5-0.19c-0.19-0.06-0.41-0.09-0.66-0.09c-0.22,0-0.41,0.02-0.58,0.08
		c-0.17,0.05-0.31,0.12-0.41,0.21c-0.11,0.09-0.19,0.2-0.24,0.33c-0.05,0.13-0.08,0.26-0.08,0.41c0,0.2,0.05,0.38,0.16,0.52
		c0.11,0.14,0.24,0.26,0.41,0.37c0.17,0.1,0.36,0.2,0.57,0.29c0.22,0.08,0.44,0.17,0.66,0.26c0.22,0.09,0.44,0.19,0.66,0.3
		c0.22,0.11,0.41,0.24,0.58,0.4c0.17,0.16,0.3,0.35,0.4,0.57C128.02,71.58,128.07,71.85,128.07,72.15L128.07,72.15z M133.43,73.56
		c0,0.15-0.01,0.27-0.03,0.36c-0.02,0.09-0.05,0.16-0.1,0.2c-0.04,0.04-0.1,0.08-0.19,0.12c-0.08,0.04-0.18,0.07-0.29,0.09
		c-0.11,0.02-0.22,0.04-0.34,0.06c-0.12,0.02-0.24,0.02-0.36,0.02c-0.37,0-0.68-0.05-0.95-0.15c-0.26-0.1-0.48-0.24-0.65-0.44
		c-0.17-0.2-0.29-0.45-0.37-0.75c-0.08-0.3-0.11-0.66-0.11-1.07v-4.14h-1c-0.08,0-0.14-0.04-0.19-0.13
		c-0.05-0.08-0.07-0.22-0.07-0.41c0-0.1,0.01-0.18,0.02-0.25c0.01-0.07,0.03-0.12,0.05-0.17c0.02-0.04,0.05-0.08,0.08-0.09
		c0.03-0.02,0.07-0.03,0.11-0.03h0.99V65.1c0-0.04,0.01-0.07,0.03-0.1c0.02-0.03,0.05-0.06,0.1-0.08c0.05-0.02,0.12-0.04,0.2-0.05
		c0.08-0.01,0.19-0.02,0.32-0.02c0.13,0,0.24,0.01,0.32,0.02c0.08,0.01,0.15,0.03,0.2,0.05c0.05,0.02,0.08,0.05,0.1,0.08
		c0.02,0.03,0.03,0.06,0.03,0.1v1.69h1.82c0.04,0,0.08,0.01,0.11,0.03c0.03,0.02,0.06,0.05,0.08,0.09c0.02,0.05,0.04,0.1,0.05,0.17
		c0.01,0.07,0.02,0.15,0.02,0.25c0,0.19-0.02,0.33-0.07,0.41c-0.05,0.09-0.11,0.13-0.19,0.13h-1.82v3.96c0,0.49,0.07,0.86,0.22,1.11
		c0.15,0.25,0.4,0.37,0.78,0.37c0.12,0,0.23-0.01,0.32-0.04c0.09-0.02,0.18-0.05,0.25-0.08c0.07-0.03,0.14-0.05,0.19-0.08
		c0.05-0.02,0.1-0.03,0.14-0.03c0.03,0,0.05,0.01,0.08,0.02c0.02,0.01,0.04,0.04,0.05,0.08c0.01,0.04,0.03,0.09,0.03,0.15
		C133.43,73.39,133.43,73.46,133.43,73.56L133.43,73.56z M136.45,74.08c0,0.04-0.01,0.08-0.03,0.1c-0.02,0.03-0.06,0.05-0.1,0.08
		c-0.05,0.02-0.11,0.04-0.2,0.05c-0.09,0.01-0.19,0.02-0.33,0.02c-0.12,0-0.23-0.01-0.31-0.02c-0.08-0.01-0.15-0.03-0.2-0.05
		c-0.05-0.02-0.09-0.05-0.1-0.08c-0.02-0.03-0.03-0.06-0.03-0.1v-7.09c0-0.04,0.01-0.07,0.03-0.1c0.02-0.03,0.05-0.06,0.1-0.08
		c0.05-0.02,0.12-0.04,0.2-0.05c0.09-0.01,0.19-0.02,0.31-0.02c0.13,0,0.24,0.01,0.33,0.02c0.08,0.01,0.15,0.03,0.2,0.05
		c0.05,0.02,0.08,0.05,0.1,0.08c0.02,0.03,0.03,0.06,0.03,0.1V74.08L136.45,74.08z M136.6,64.59c0,0.31-0.06,0.51-0.17,0.62
		c-0.12,0.11-0.33,0.16-0.64,0.16c-0.31,0-0.51-0.05-0.63-0.16c-0.11-0.11-0.17-0.31-0.17-0.61c0-0.3,0.06-0.51,0.17-0.62
		c0.12-0.11,0.33-0.17,0.64-0.17c0.31,0,0.51,0.05,0.63,0.16C136.55,64.09,136.6,64.29,136.6,64.59L136.6,64.59z M142.54,73.56
		c0,0.15-0.01,0.27-0.03,0.36c-0.02,0.09-0.05,0.16-0.1,0.2c-0.04,0.04-0.1,0.08-0.19,0.12c-0.08,0.04-0.18,0.07-0.29,0.09
		c-0.11,0.02-0.22,0.04-0.34,0.06c-0.12,0.02-0.24,0.02-0.36,0.02c-0.37,0-0.68-0.05-0.95-0.15c-0.26-0.1-0.48-0.24-0.65-0.44
		c-0.17-0.2-0.29-0.45-0.37-0.75c-0.08-0.3-0.11-0.66-0.11-1.07v-4.14h-1c-0.08,0-0.14-0.04-0.19-0.13
		c-0.05-0.08-0.07-0.22-0.07-0.41c0-0.1,0.01-0.18,0.02-0.25c0.01-0.07,0.03-0.12,0.05-0.17c0.02-0.04,0.05-0.08,0.08-0.09
		c0.03-0.02,0.07-0.03,0.11-0.03h0.99V65.1c0-0.04,0.01-0.07,0.03-0.1c0.02-0.03,0.05-0.06,0.1-0.08c0.05-0.02,0.12-0.04,0.2-0.05
		c0.08-0.01,0.19-0.02,0.31-0.02c0.13,0,0.24,0.01,0.32,0.02c0.08,0.01,0.15,0.03,0.2,0.05c0.05,0.02,0.08,0.05,0.1,0.08
		c0.02,0.03,0.03,0.06,0.03,0.1v1.69h1.82c0.04,0,0.08,0.01,0.11,0.03c0.03,0.02,0.06,0.05,0.08,0.09c0.02,0.05,0.04,0.1,0.05,0.17
		c0.01,0.07,0.02,0.15,0.02,0.25c0,0.19-0.02,0.33-0.07,0.41c-0.05,0.09-0.11,0.13-0.19,0.13h-1.82v3.96c0,0.49,0.07,0.86,0.22,1.11
		c0.15,0.25,0.4,0.37,0.78,0.37c0.12,0,0.23-0.01,0.32-0.04c0.09-0.02,0.18-0.05,0.25-0.08c0.07-0.03,0.14-0.05,0.19-0.08
		c0.05-0.02,0.1-0.03,0.14-0.03c0.03,0,0.05,0.01,0.08,0.02c0.02,0.01,0.04,0.04,0.05,0.08c0.01,0.04,0.03,0.09,0.03,0.15
		C142.54,73.39,142.54,73.46,142.54,73.56L142.54,73.56z M150.34,74.08c0,0.04-0.01,0.08-0.03,0.1c-0.02,0.03-0.05,0.05-0.1,0.08
		c-0.05,0.02-0.11,0.04-0.19,0.05c-0.08,0.01-0.17,0.02-0.28,0.02c-0.12,0-0.22-0.01-0.3-0.02c-0.08-0.01-0.13-0.03-0.18-0.05
		c-0.05-0.02-0.08-0.05-0.09-0.08c-0.01-0.03-0.02-0.06-0.02-0.1v-0.94c-0.41,0.45-0.8,0.77-1.2,0.98c-0.39,0.21-0.79,0.31-1.2,0.31
		c-0.47,0-0.87-0.08-1.19-0.24c-0.32-0.16-0.58-0.37-0.78-0.64c-0.2-0.27-0.34-0.59-0.43-0.95c-0.09-0.36-0.13-0.8-0.13-1.31v-4.3
		c0-0.04,0.01-0.08,0.03-0.11c0.02-0.03,0.05-0.05,0.11-0.08c0.05-0.02,0.12-0.04,0.21-0.05c0.08-0.01,0.19-0.01,0.31-0.01
		c0.13,0,0.23,0.01,0.31,0.01c0.08,0.01,0.15,0.02,0.2,0.05c0.05,0.02,0.08,0.05,0.1,0.08c0.02,0.03,0.03,0.06,0.03,0.11v4.13
		c0,0.41,0.03,0.75,0.09,1c0.06,0.25,0.15,0.46,0.27,0.64c0.12,0.18,0.28,0.31,0.47,0.41c0.19,0.1,0.41,0.15,0.66,0.15
		c0.33,0,0.65-0.12,0.97-0.35c0.33-0.23,0.67-0.57,1.03-1.02v-4.96c0-0.04,0.01-0.08,0.03-0.11c0.02-0.03,0.05-0.05,0.11-0.08
		c0.05-0.02,0.12-0.04,0.2-0.05c0.08-0.01,0.19-0.01,0.32-0.01c0.13,0,0.23,0.01,0.31,0.01c0.08,0.01,0.15,0.02,0.2,0.05
		c0.05,0.02,0.08,0.05,0.11,0.08c0.02,0.03,0.04,0.06,0.04,0.11V74.08L150.34,74.08z M156.43,73.56c0,0.15-0.01,0.27-0.03,0.36
		c-0.02,0.09-0.05,0.16-0.1,0.2c-0.04,0.04-0.1,0.08-0.19,0.12c-0.08,0.04-0.18,0.07-0.29,0.09c-0.11,0.02-0.22,0.04-0.34,0.06
		c-0.12,0.02-0.24,0.02-0.36,0.02c-0.37,0-0.68-0.05-0.95-0.15c-0.26-0.1-0.48-0.24-0.65-0.44c-0.17-0.2-0.29-0.45-0.37-0.75
		c-0.08-0.3-0.11-0.66-0.11-1.07v-4.14h-0.99c-0.08,0-0.14-0.04-0.19-0.13c-0.05-0.08-0.07-0.22-0.07-0.41
		c0-0.1,0.01-0.18,0.02-0.25c0.01-0.07,0.03-0.12,0.05-0.17c0.02-0.04,0.05-0.08,0.08-0.09c0.03-0.02,0.07-0.03,0.11-0.03h0.99V65.1
		c0-0.04,0.01-0.07,0.03-0.1c0.02-0.03,0.05-0.06,0.1-0.08c0.05-0.02,0.12-0.04,0.2-0.05c0.08-0.01,0.19-0.02,0.31-0.02
		c0.13,0,0.24,0.01,0.32,0.02c0.08,0.01,0.15,0.03,0.2,0.05c0.05,0.02,0.08,0.05,0.1,0.08c0.02,0.03,0.03,0.06,0.03,0.1v1.69h1.82
		c0.04,0,0.08,0.01,0.11,0.03c0.03,0.02,0.06,0.05,0.08,0.09c0.02,0.05,0.04,0.1,0.05,0.17c0.01,0.07,0.02,0.15,0.02,0.25
		c0,0.19-0.02,0.33-0.07,0.41c-0.05,0.09-0.11,0.13-0.19,0.13h-1.82v3.96c0,0.49,0.07,0.86,0.22,1.11c0.14,0.25,0.4,0.37,0.78,0.37
		c0.12,0,0.23-0.01,0.32-0.04c0.09-0.02,0.18-0.05,0.25-0.08c0.07-0.03,0.14-0.05,0.19-0.08c0.05-0.02,0.1-0.03,0.14-0.03
		c0.03,0,0.05,0.01,0.08,0.02c0.02,0.01,0.04,0.04,0.05,0.08c0.01,0.04,0.03,0.09,0.03,0.15C156.42,73.39,156.43,73.46,156.43,73.56
		L156.43,73.56z M164.58,70.46c0,0.58-0.08,1.11-0.23,1.6c-0.15,0.49-0.38,0.91-0.68,1.26c-0.3,0.35-0.68,0.63-1.13,0.82
		c-0.45,0.2-0.98,0.3-1.58,0.3c-0.58,0-1.09-0.09-1.52-0.26c-0.43-0.17-0.8-0.43-1.08-0.76c-0.29-0.33-0.5-0.73-0.65-1.21
		c-0.14-0.47-0.21-1.01-0.21-1.61c0-0.58,0.08-1.11,0.22-1.59c0.15-0.49,0.38-0.91,0.68-1.26c0.3-0.35,0.68-0.62,1.13-0.82
		c0.45-0.2,0.98-0.29,1.58-0.29c0.58,0,1.09,0.09,1.52,0.26c0.43,0.17,0.8,0.42,1.08,0.76c0.29,0.33,0.51,0.73,0.65,1.2
		C164.51,69.33,164.58,69.86,164.58,70.46L164.58,70.46z M163.21,70.54c0-0.38-0.04-0.74-0.11-1.09c-0.07-0.34-0.19-0.64-0.35-0.9
		c-0.16-0.26-0.38-0.46-0.66-0.61c-0.28-0.15-0.63-0.23-1.04-0.23c-0.38,0-0.71,0.07-0.99,0.21c-0.27,0.13-0.5,0.33-0.68,0.58
		c-0.18,0.25-0.31,0.55-0.4,0.89c-0.09,0.34-0.13,0.71-0.13,1.12c0,0.39,0.04,0.75,0.1,1.09c0.07,0.34,0.19,0.64,0.36,0.89
		c0.16,0.26,0.39,0.46,0.66,0.61c0.28,0.15,0.63,0.22,1.04,0.22c0.38,0,0.71-0.07,0.98-0.2c0.28-0.14,0.51-0.33,0.69-0.58
		c0.18-0.24,0.31-0.54,0.4-0.88C163.17,71.33,163.21,70.95,163.21,70.54L163.21,70.54z M176.22,74.08c0,0.04-0.01,0.08-0.03,0.11
		c-0.02,0.03-0.05,0.06-0.09,0.08c-0.05,0.02-0.1,0.03-0.18,0.04c-0.08,0.01-0.16,0.02-0.27,0.02c-0.11,0-0.2-0.01-0.27-0.02
		c-0.08-0.01-0.13-0.03-0.18-0.04c-0.05-0.02-0.08-0.05-0.1-0.08c-0.02-0.03-0.03-0.07-0.03-0.11v-0.94
		c-0.37,0.41-0.76,0.72-1.16,0.95c-0.4,0.23-0.84,0.34-1.32,0.34c-0.52,0-0.97-0.1-1.33-0.3c-0.37-0.2-0.66-0.48-0.89-0.82
		c-0.23-0.34-0.4-0.75-0.5-1.21c-0.1-0.47-0.16-0.95-0.16-1.47c0-0.61,0.07-1.16,0.2-1.65c0.13-0.49,0.33-0.91,0.58-1.26
		c0.26-0.35,0.58-0.61,0.96-0.8c0.38-0.19,0.82-0.28,1.32-0.28c0.41,0,0.79,0.09,1.14,0.27c0.34,0.18,0.69,0.45,1.02,0.8v-4.12
		c0-0.04,0.01-0.07,0.03-0.1c0.02-0.03,0.05-0.06,0.11-0.08c0.05-0.02,0.12-0.04,0.2-0.05c0.08-0.01,0.19-0.02,0.31-0.02
		c0.13,0,0.24,0.01,0.32,0.02c0.08,0.01,0.15,0.03,0.2,0.05c0.05,0.02,0.08,0.04,0.11,0.08c0.02,0.03,0.03,0.07,0.03,0.1V74.08
		L176.22,74.08z M174.91,69.09c-0.35-0.44-0.69-0.77-1.02-1c-0.33-0.23-0.67-0.34-1.03-0.34c-0.33,0-0.61,0.08-0.84,0.24
		c-0.23,0.16-0.42,0.37-0.56,0.62c-0.15,0.26-0.25,0.55-0.31,0.87c-0.07,0.33-0.1,0.66-0.1,0.99c0,0.36,0.03,0.71,0.08,1.05
		c0.05,0.34,0.15,0.64,0.29,0.91c0.14,0.27,0.32,0.48,0.54,0.64c0.23,0.16,0.51,0.24,0.85,0.24c0.17,0,0.34-0.02,0.5-0.07
		c0.16-0.05,0.32-0.13,0.49-0.24c0.17-0.11,0.34-0.25,0.53-0.43c0.18-0.18,0.38-0.39,0.58-0.65V69.09L174.91,69.09z M183.96,74.09
		c0,0.06-0.02,0.11-0.06,0.14c-0.04,0.03-0.1,0.06-0.17,0.07c-0.08,0.02-0.18,0.02-0.32,0.02c-0.14,0-0.25-0.01-0.33-0.02
		c-0.08-0.02-0.14-0.04-0.18-0.07c-0.04-0.03-0.05-0.08-0.05-0.14v-0.71c-0.31,0.33-0.66,0.59-1.04,0.77
		c-0.38,0.18-0.78,0.28-1.21,0.28c-0.37,0-0.71-0.05-1.01-0.15c-0.3-0.1-0.56-0.24-0.77-0.42c-0.21-0.19-0.38-0.41-0.5-0.68
		c-0.12-0.27-0.18-0.57-0.18-0.91c0-0.4,0.08-0.74,0.24-1.04c0.16-0.29,0.4-0.54,0.7-0.73c0.3-0.2,0.68-0.34,1.12-0.44
		c0.44-0.1,0.94-0.14,1.49-0.14h0.98v-0.55c0-0.27-0.03-0.52-0.09-0.73c-0.06-0.21-0.15-0.38-0.28-0.52
		c-0.13-0.14-0.3-0.24-0.5-0.32c-0.2-0.07-0.46-0.1-0.76-0.1c-0.32,0-0.61,0.04-0.86,0.11c-0.26,0.08-0.48,0.16-0.67,0.25
		c-0.19,0.09-0.35,0.17-0.48,0.25c-0.13,0.08-0.22,0.11-0.29,0.11c-0.04,0-0.08-0.01-0.11-0.03c-0.03-0.02-0.06-0.05-0.08-0.1
		c-0.02-0.04-0.04-0.09-0.05-0.16c-0.01-0.06-0.02-0.14-0.02-0.22c0-0.13,0.01-0.24,0.03-0.31c0.02-0.08,0.06-0.15,0.13-0.22
		c0.07-0.07,0.19-0.15,0.37-0.24c0.17-0.09,0.37-0.17,0.6-0.25c0.23-0.08,0.47-0.14,0.74-0.19c0.27-0.05,0.54-0.08,0.81-0.08
		c0.51,0,0.94,0.06,1.3,0.17c0.36,0.12,0.65,0.28,0.87,0.51c0.22,0.22,0.38,0.5,0.48,0.83c0.1,0.33,0.15,0.72,0.15,1.16V74.09
		L183.96,74.09z M182.67,70.85h-1.11c-0.36,0-0.67,0.03-0.93,0.09c-0.26,0.06-0.48,0.15-0.65,0.27c-0.17,0.12-0.3,0.26-0.38,0.42
		c-0.08,0.17-0.12,0.36-0.12,0.57c0,0.37,0.12,0.66,0.35,0.88c0.23,0.22,0.56,0.33,0.98,0.33c0.34,0,0.66-0.09,0.95-0.26
		c0.29-0.17,0.6-0.44,0.92-0.8V70.85L182.67,70.85z M196.95,72.84c0,0.08,0,0.16-0.01,0.22c-0.01,0.06-0.01,0.12-0.03,0.16
		c-0.01,0.05-0.03,0.09-0.05,0.13c-0.02,0.04-0.06,0.08-0.11,0.13c-0.05,0.05-0.16,0.13-0.33,0.24c-0.17,0.11-0.38,0.22-0.63,0.32
		c-0.25,0.1-0.54,0.19-0.86,0.26c-0.32,0.07-0.68,0.11-1.06,0.11c-0.66,0-1.26-0.11-1.79-0.33c-0.53-0.22-0.99-0.55-1.36-0.98
		c-0.37-0.43-0.66-0.96-0.87-1.6c-0.2-0.63-0.3-1.36-0.3-2.19c0-0.84,0.11-1.6,0.33-2.26c0.22-0.66,0.52-1.22,0.92-1.68
		c0.4-0.46,0.87-0.81,1.41-1.05c0.55-0.24,1.16-0.36,1.82-0.36c0.3,0,0.58,0.03,0.86,0.08c0.28,0.05,0.54,0.12,0.77,0.21
		c0.24,0.09,0.45,0.18,0.63,0.29c0.18,0.11,0.31,0.2,0.38,0.27c0.07,0.07,0.12,0.12,0.14,0.16c0.02,0.04,0.04,0.08,0.05,0.13
		c0.01,0.05,0.02,0.11,0.03,0.18c0.01,0.07,0.01,0.15,0.01,0.24c0,0.1-0.01,0.19-0.02,0.27c-0.01,0.07-0.03,0.13-0.05,0.19
		c-0.02,0.05-0.05,0.09-0.08,0.11c-0.03,0.02-0.06,0.03-0.1,0.03c-0.08,0-0.18-0.05-0.31-0.15c-0.13-0.1-0.3-0.22-0.51-0.34
		c-0.21-0.12-0.46-0.24-0.76-0.34c-0.3-0.1-0.65-0.15-1.07-0.15c-0.45,0-0.86,0.09-1.23,0.27c-0.37,0.18-0.69,0.45-0.95,0.8
		c-0.26,0.35-0.47,0.78-0.61,1.29c-0.15,0.51-0.22,1.09-0.22,1.74c0,0.65,0.07,1.22,0.21,1.71c0.14,0.5,0.34,0.91,0.6,1.25
		c0.26,0.33,0.58,0.59,0.96,0.76c0.38,0.17,0.81,0.26,1.29,0.26c0.4,0,0.76-0.05,1.06-0.15c0.3-0.1,0.56-0.21,0.77-0.34
		c0.21-0.12,0.39-0.23,0.52-0.33c0.14-0.1,0.24-0.15,0.32-0.15c0.04,0,0.07,0.01,0.09,0.02c0.03,0.02,0.05,0.05,0.06,0.09
		c0.01,0.04,0.03,0.1,0.04,0.19C196.95,72.61,196.95,72.71,196.95,72.84L196.95,72.84z M205.19,70.46c0,0.58-0.08,1.11-0.23,1.6
		c-0.15,0.49-0.38,0.91-0.68,1.26c-0.3,0.35-0.68,0.63-1.13,0.82c-0.45,0.2-0.98,0.3-1.58,0.3c-0.58,0-1.09-0.09-1.53-0.26
		c-0.43-0.17-0.8-0.43-1.08-0.76c-0.29-0.33-0.5-0.73-0.65-1.21c-0.14-0.47-0.21-1.01-0.21-1.61c0-0.58,0.08-1.11,0.22-1.59
		c0.15-0.49,0.38-0.91,0.68-1.26c0.3-0.35,0.68-0.62,1.13-0.82c0.45-0.2,0.98-0.29,1.58-0.29c0.58,0,1.09,0.09,1.52,0.26
		c0.43,0.17,0.8,0.42,1.08,0.76c0.29,0.33,0.51,0.73,0.65,1.2C205.12,69.33,205.19,69.86,205.19,70.46L205.19,70.46z M203.82,70.54
		c0-0.38-0.04-0.74-0.11-1.09c-0.07-0.34-0.19-0.64-0.35-0.9c-0.16-0.26-0.38-0.46-0.66-0.61c-0.28-0.15-0.63-0.23-1.04-0.23
		c-0.38,0-0.71,0.07-0.99,0.21c-0.27,0.13-0.5,0.33-0.68,0.58c-0.18,0.25-0.31,0.55-0.4,0.89c-0.09,0.34-0.13,0.71-0.13,1.12
		c0,0.39,0.04,0.75,0.1,1.09c0.07,0.34,0.19,0.64,0.36,0.89c0.16,0.26,0.39,0.46,0.66,0.61c0.28,0.15,0.63,0.22,1.04,0.22
		c0.38,0,0.71-0.07,0.98-0.2c0.28-0.14,0.51-0.33,0.69-0.58c0.18-0.24,0.31-0.54,0.4-0.88C203.78,71.33,203.82,70.95,203.82,70.54z"
		/>
</g>
</svg>
